<svg width="79" height="75" viewBox="0 0 79 75" fill="none" xmlns="http://www.w3.org/2000/svg">
<path d="M53.385 6.01483C51.753 6.21377 50.2382 6.87027 48.8595 7.96941C48.3671 8.36729 47.2369 9.5659 46.6319 10.3418C44.5919 12.9528 42.5519 16.479 40.2165 21.4326C37.9936 26.1475 35.8317 31.4641 33.6088 37.6959C33.3884 38.3126 33.0929 39.1382 32.9522 39.5361C32.2066 41.6349 31.0951 44.9622 30.1056 48.0507L29.3975 50.2788H28.8066C27.9296 50.2788 26.4243 50.3683 25.3832 50.4778C21.941 50.8458 19.4508 51.8107 17.7391 53.4469C16.9325 54.2178 16.3978 54.9788 16.1446 55.7298C16.0133 56.1028 15.9992 56.9085 16.1118 57.2268C16.168 57.3909 16.1727 57.4953 16.1399 57.7241C16.0696 58.1568 16.1258 59.1416 16.2431 59.5693C16.4354 60.2954 16.7496 60.8127 17.3967 61.4741C18.5691 62.6628 19.9057 63.379 22.4803 64.1946C24.9095 64.9655 27.7561 65.4579 31.1796 65.7016C33.0789 65.8309 37.4027 65.811 41.811 65.6469C46.8664 65.4579 48.0153 65.438 51.8139 65.4629C56.2269 65.4927 58.3888 65.5922 61.6387 65.9005C62.7548 66.005 63.0456 66.005 64.5932 65.8657C70.6663 65.3385 73.4378 63.6227 75.2387 59.2808C75.3418 59.0371 75.5153 58.7039 75.6326 58.5348C75.8811 58.1817 76.0359 57.7689 76.0359 57.4754C76.0359 57.0626 75.6982 56.5504 75.2809 56.3216C74.8166 56.063 73.7098 55.7646 73.4425 55.8193C73.3628 55.8342 73.0861 55.9536 72.8282 56.0779C72.2983 56.3365 71.5385 56.5603 70.8914 56.6399C69.0296 56.8786 66.2627 56.6648 62.3234 55.9735C61.4605 55.8193 59.2845 55.4015 59.2658 55.3816C59.2611 55.3816 59.2329 55.1528 59.2048 54.8793C59.1767 54.6057 58.9844 52.7307 58.778 50.7115C58.5717 48.6973 58.234 45.4048 58.0277 43.4005C57.8214 41.4012 57.4884 38.1137 57.282 36.1044C57.0757 34.0951 56.7381 30.8027 56.5317 28.7934C56.3254 26.7841 55.983 23.4817 55.7767 21.4575C55.5703 19.4333 55.3405 17.2101 55.2702 16.5238L55.1389 15.2655L55.2843 15.2456C55.847 15.1511 57.5353 15.1959 58.1871 15.3152C59.2189 15.5092 59.8379 15.8424 61.1229 16.9068C62.4406 17.9959 63.2988 18.5032 64.6823 19.0056C65.1466 19.1747 66.7504 19.6471 66.7504 19.6123C66.7504 19.6074 66.5206 19.1796 66.2439 18.6674C65.9626 18.1501 65.3107 16.8869 64.7948 15.8573C63.3833 13.0672 62.783 12.0029 61.8779 10.7197C61.3198 9.93393 61.0853 9.6405 60.4007 8.90442C58.9375 7.32285 58.1356 6.75588 56.7849 6.3381C55.8095 6.0397 54.337 5.90044 53.385 6.01483Z" fill="#939393"/>
<path fill-rule="evenodd" clip-rule="evenodd" d="M21 42C20.97 33.7259 14.2658 27.0278 6 27.0278C14.2843 27.0278 21 20.2995 21 12C21.0299 20.2741 27.7342 26.9722 36 26.9722C27.7156 26.9722 21 33.7005 21 42Z" fill="#939393"/>
</svg>
