<svg width="142" height="143" viewBox="0 0 142 143" fill="none" xmlns="http://www.w3.org/2000/svg">
<path d="M65.9777 54.0354C68.0379 40.2749 69.3632 26.4054 69.9201 12.5024C70.0793 8.51933 70.1735 4.53207 70.2112 0.544801C70.006 0.572054 69.8008 0.601403 69.5935 0.628656C71.9971 14.7245 73.2889 28.9756 74.3232 43.2287C74.6163 47.2621 74.8885 51.2975 75.1607 55.333C75.1795 55.6286 75.5878 55.7816 75.7469 55.4923C78.1986 51.004 80.6483 46.5178 83.1 42.0296C82.9095 41.9478 82.7169 41.8681 82.5263 41.7864C80.9916 46.9434 79.4549 52.1004 77.9202 57.2575C77.8218 57.5887 78.2175 57.7396 78.4457 57.5635C89.4251 49.0523 100.409 40.5286 110.869 31.378C110.72 31.2291 110.574 31.0824 110.425 30.9335C101.541 42.2581 92.4421 53.4107 83.1335 64.3851C82.9535 64.5968 83.1188 65.037 83.4392 64.9113C89.2366 62.6325 95.1576 60.6955 101.179 59.1086C101.097 58.9178 101.018 58.7249 100.936 58.5342C96.5227 61.36 91.9354 63.8987 87.1974 66.1355C86.8917 66.2802 87.0739 66.7015 87.3565 66.7225C101.447 67.7623 115.521 69.0054 129.576 70.4561C133.571 70.8691 137.566 71.2989 141.558 71.7433C141.558 71.5336 141.558 71.324 141.558 71.1144C127.089 72.5294 112.617 73.9445 98.1475 75.3616C94.0626 75.762 89.9778 76.1603 85.893 76.5607C85.6062 76.588 85.4366 76.9863 85.7339 77.1477C90.6646 79.787 95.746 82.1244 100.955 84.1579C101.012 83.9566 101.066 83.7533 101.123 83.552C95.3796 81.7848 89.5654 80.2629 83.6925 78.9883C83.3785 78.9191 83.1796 79.2755 83.3868 79.5145C92.6494 90.2038 101.703 101.073 110.542 112.115C110.67 111.949 110.796 111.786 110.923 111.62C99.3513 103.495 88.3657 94.56 78.0479 84.8895C77.8699 84.7239 77.4763 84.8224 77.5119 85.1117C78.2238 90.8788 79.6244 96.5243 81.7077 101.95C81.8982 101.868 82.0908 101.788 82.2814 101.706C79.8673 97.5473 77.4512 93.386 75.0371 89.2269C74.8341 88.8768 74.2918 89.1933 74.4949 89.5434C76.9089 93.7026 79.3251 97.8639 81.7391 102.023C81.9129 102.321 82.4447 102.122 82.3128 101.78C80.2505 96.4111 78.8456 90.8201 78.14 85.1096C77.9621 85.183 77.782 85.2585 77.604 85.3319C87.9595 95.038 98.9933 104.006 110.607 112.161C110.923 112.383 111.193 111.924 110.988 111.666C102.149 100.625 93.0953 89.7552 83.8328 79.0658C83.7302 79.2419 83.6297 79.4159 83.5271 79.592C89.4 80.8666 95.2142 82.3886 100.957 84.1558C101.351 84.2774 101.493 83.6925 101.125 83.5499C95.9658 81.5375 90.9367 79.2168 86.0542 76.6026C86.0019 76.7976 85.9495 76.9926 85.8951 77.1896C100.365 75.7746 114.836 74.3595 129.306 72.9424C133.391 72.542 137.476 72.1437 141.56 71.7433C141.967 71.7035 141.962 71.1584 141.56 71.1144C127.518 69.5484 113.455 68.1837 99.3744 67.0286C95.3712 66.6994 91.3659 66.3892 87.3607 66.0936C87.413 66.2886 87.4654 66.4835 87.5198 66.6806C92.2579 64.4438 96.8452 61.9051 101.259 59.0792C101.554 58.8905 101.37 58.4126 101.016 58.5048C94.9943 60.0917 89.0713 62.0288 83.2759 64.3075C83.3785 64.4836 83.479 64.6576 83.5816 64.8337C92.8902 53.8593 101.987 42.7046 110.871 31.3801C111.118 31.0656 110.737 30.6631 110.427 30.9356C99.9648 40.0862 88.9833 48.61 78.0039 57.1212C78.1798 57.2239 78.3536 57.3246 78.5294 57.4273C80.0641 52.2702 81.6009 47.1132 83.1356 41.9562C83.2361 41.6166 82.7336 41.3986 82.5619 41.713C80.1102 46.2013 77.6606 50.6875 75.2088 55.1758C75.4035 55.2282 75.5983 55.2806 75.7951 55.3351C74.8257 40.9772 73.8563 26.6067 71.9887 12.3326C71.4695 8.3642 70.879 4.40629 70.207 0.463043C70.1463 0.106663 69.5935 0.200999 69.5893 0.546897C69.4637 14.364 68.599 28.1727 66.9827 41.8954C66.5116 45.8952 65.9756 49.8867 65.3789 53.8698C65.314 54.2639 65.9191 54.4358 65.9777 54.0354Z" fill="#B50000"/>
<path d="M69.9745 140.984C68.4042 127.236 67.4913 113.431 66.4613 99.6353C66.1598 95.6103 65.8604 91.5853 65.5589 87.5603C65.5358 87.2647 65.1359 87.1138 64.9726 87.401C62.3722 92.0109 59.7719 96.6186 57.1715 101.229C57.362 101.31 57.5546 101.39 57.7452 101.472C59.2924 95.8241 60.8522 90.1765 62.8245 84.661C62.9124 84.4179 62.5795 84.139 62.3639 84.3067C56.5769 88.7594 50.7585 93.1743 45.0594 97.7402C39.6493 102.075 34.3899 106.627 29.8319 111.872C29.9973 112 30.1606 112.125 30.326 112.253C34.5239 106.079 38.7322 99.889 43.5561 94.1827C45.8885 91.426 48.3633 88.7867 51.0223 86.3423C53.4866 84.0761 56.1079 81.919 57.72 78.9233C57.8561 78.6717 57.6342 78.4076 57.3662 78.4621C51.4452 79.6654 45.6226 81.288 39.9298 83.3194C40.0115 83.5101 40.091 83.703 40.1727 83.8938C44.7956 80.8729 49.81 78.5376 55.0966 76.9506C55.3248 76.8815 55.4023 76.5964 55.2348 76.4245C54.368 75.5272 53.139 75.4958 51.9665 75.3951C50.1576 75.2421 48.3507 75.0912 46.5417 74.9381C42.7877 74.6216 39.0316 74.305 35.2776 73.9906C27.9078 73.3701 20.5358 72.7495 13.1639 72.129C8.92206 71.7726 4.68021 71.4142 0.438368 71.0578C0.465587 71.2632 0.494897 71.4687 0.522115 71.6762C7.29944 70.1878 14.2547 69.8356 21.1556 69.3346C28.1779 68.8252 35.2022 68.3158 42.2245 67.8063C46.257 67.5129 50.2916 67.2215 54.324 66.928C54.5418 66.9133 54.6653 66.7414 54.6276 66.5297C54.4748 65.6723 53.8781 65.1146 53.1432 64.6974C51.9561 64.0245 50.6077 63.5738 49.3536 63.0392C46.5983 61.8653 43.8409 60.6892 41.0855 59.5153C40.7171 59.358 40.3967 59.901 40.7694 60.0582C43.1499 61.0729 45.5305 62.0875 47.9089 63.1021C49.0353 63.5822 50.1638 64.0644 51.2903 64.5444C52.3287 64.9867 53.7964 65.427 54.0225 66.6974C54.123 66.5653 54.2235 66.4311 54.3261 66.2991C40.1497 67.3284 25.9418 68.1501 11.7862 69.4184C7.94849 69.7622 4.12329 70.2423 0.356717 71.0704C-0.00968091 71.15 0.105472 71.6594 0.440464 71.6888C14.6253 72.8837 28.8123 74.0765 42.9971 75.2715C44.9442 75.435 46.8914 75.5985 48.8385 75.7641C49.8812 75.8522 50.9239 75.9402 51.9686 76.0282C52.961 76.1121 54.0519 76.1058 54.793 76.8731C54.8391 76.697 54.8852 76.523 54.9312 76.3469C49.5944 77.9485 44.5234 80.3048 39.8565 83.355C39.5739 83.5395 39.7456 84.0552 40.0994 83.9294C45.7901 81.898 51.6148 80.2755 57.5358 79.0722C57.4185 78.9191 57.2992 78.764 57.1819 78.611C55.4756 81.7827 52.6135 83.9923 50.034 86.4115C47.4002 88.881 44.9484 91.5434 42.637 94.3147C37.9764 99.9036 33.8748 105.926 29.7879 111.939C29.589 112.232 30.0475 112.591 30.282 112.32C34.7542 107.172 39.9047 102.69 45.2101 98.4278C50.9616 93.8095 56.8407 89.3506 62.6863 84.8539C62.5335 84.7365 62.3785 84.617 62.2257 84.4996C60.2534 90.0151 58.6936 95.6648 57.1463 101.31C57.0521 101.652 57.5442 101.866 57.72 101.553C60.3204 96.9436 62.9208 92.3358 65.5212 87.7259C65.3264 87.6735 65.1317 87.6211 64.9349 87.5666C65.9713 101.438 66.8528 115.335 68.1299 129.188C68.4942 133.127 68.9025 137.061 69.3506 140.99C69.3924 141.38 70.0205 141.384 69.9745 140.984Z" fill="#B50000"/>
<path d="M30.954 31.7574C35.3383 37.0549 39.4356 42.6019 43.6356 48.0461C47.8188 53.4694 52.0021 58.8926 56.1853 64.3159C56.3277 64.1733 56.4721 64.0287 56.6145 63.8861C51.3488 61.62 45.8843 59.8884 40.271 58.7291C39.8774 58.6473 39.7078 59.2532 40.1035 59.3349C45.6602 60.4837 51.085 62.1839 56.2983 64.4291C56.5433 64.5339 56.9453 64.2823 56.7275 63.9993C52.4606 58.4671 48.1915 52.9348 43.9245 47.4004C39.7769 42.0233 35.7298 36.5455 31.3979 31.313C31.1404 31.0006 30.6986 31.4472 30.954 31.7574Z" fill="#B50000"/>
<path d="M58.3607 41.5034C60.9087 45.7045 63.2076 50.0481 65.2531 54.5175C65.4206 54.8844 65.9629 54.5658 65.7954 54.201C63.752 49.7316 61.451 45.39 58.9029 41.1868C58.6936 40.8409 58.1492 41.1575 58.3607 41.5034Z" fill="#B50000"/>
<path d="M57.7723 40.017C59.5101 46.3019 61.2457 52.5847 62.9835 58.8696C63.1594 58.7668 63.3332 58.6662 63.509 58.5635C52.984 50.0208 42.6222 41.279 32.4322 32.3402C32.1286 32.074 31.6826 32.5184 31.9883 32.7846C42.1784 41.7235 52.5401 50.4674 63.0652 59.0079C63.2955 59.1945 63.6807 59.0289 63.5907 58.7018C61.8529 52.417 60.1172 46.1342 58.3795 39.8493C58.2706 39.4615 57.6655 39.6271 57.7723 40.017Z" fill="#B50000"/>
<path d="M70.0603 141.799C71.8253 124.387 73.5924 106.975 75.3574 89.5644C75.3972 89.1619 74.7691 89.164 74.7293 89.5644C72.9643 106.977 71.1972 124.389 69.4322 141.799C69.3925 142.202 70.0206 142.2 70.0603 141.799Z" fill="#B50000"/>
</svg>
