<svg width="228" height="232" viewBox="0 0 228 232" fill="none" xmlns="http://www.w3.org/2000/svg">
<circle cx="114" cy="116" r="41.5" stroke="black" stroke-width="3"/>
<path d="M110.411 122.333H103.444C101.205 122.333 99.057 123.223 97.4733 124.807C95.8897 126.39 95 128.538 95 130.778V135M133 135L128.989 130.989M118.222 105.444C118.222 110.108 114.442 113.889 109.778 113.889C105.114 113.889 101.333 110.108 101.333 105.444C101.333 100.781 105.114 97 109.778 97C114.442 97 118.222 100.781 118.222 105.444ZM130.889 126.556C130.889 130.053 128.053 132.889 124.556 132.889C121.058 132.889 118.222 130.053 118.222 126.556C118.222 123.058 121.058 120.222 124.556 120.222C128.053 120.222 130.889 123.058 130.889 126.556Z" stroke="black" stroke-width="3" stroke-linecap="round" stroke-linejoin="round"/>
<mask id="path-3-inside-1_292_585" fill="white">
<path d="M124.969 61.0052C112.049 58.0821 97.8765 60.7165 86.0035 66.2981C79.9807 69.129 76.0083 73.7682 71.8594 78.8125C67.8389 83.7004 63.8986 88.7647 61.15 94.4987C55.7692 105.734 55.9699 119.588 58.8669 131.501C61.8281 143.686 68.5812 153.879 78.5162 161.51C88.1662 168.92 99.4294 173.443 111.627 174.028C122.838 174.565 134.246 171.923 143.968 166.285C163.128 155.182 173.986 132.375 171.598 110.502C169.243 88.9492 153.502 70.1514 133.15 63.0301C130.594 62.1359 127.978 61.4503 125.318 60.941C124.56 60.7967 124.239 61.9555 124.997 62.0998C145.557 66.0374 163.216 82.0684 168.814 102.286C174.475 122.719 167.205 145.992 151.118 159.761C134.302 174.16 108.674 177.011 89.045 166.839C77.9063 161.069 68.2842 152.171 63.1803 140.595C58.3814 129.7 56.9008 116.661 59.0194 104.948C60.1589 98.6608 62.9115 92.983 66.5107 87.7422C69.9454 82.7461 73.8576 77.8141 78.0427 73.4194C82.6049 68.6277 88.6517 66.1657 94.8551 64.205C101.247 62.1881 107.92 60.921 114.641 60.9851C118.015 61.0172 121.358 61.4142 124.648 62.156C125.402 62.3364 125.723 61.1776 124.969 61.0052Z"/>
<path d="M112.891 7.37469C109.593 25.1339 106.299 42.8971 103 60.6563C102.86 61.4142 104.02 61.739 104.16 60.9771C107.458 43.2179 110.753 25.4547 114.051 7.69548C114.195 6.93763 113.036 6.61284 112.891 7.37469Z"/>
<path d="M112.803 4.23506C118.882 23.0929 124.134 42.2074 128.552 61.5224C128.709 62.2081 129.704 62.0196 129.736 61.362C129.872 58.4389 134.358 57.4084 136.14 55.5319C137.913 53.6633 138.76 51.1412 139.105 48.6311C140.064 41.7263 136.593 34.1358 140.614 27.7964C144.257 22.0544 151.227 19.8009 156.058 15.302C160.074 11.5609 162.743 5.22145 159.212 0.261387C158.847 -0.251862 157.855 0.0368418 158.112 0.72652C160.018 5.88307 165.455 9.2272 166.615 14.6644C168.176 21.9862 160.652 27.2912 156.752 32.3715C155.023 34.621 153.606 37.1431 153.265 39.9981C152.884 43.1898 153.891 46.3415 154.06 49.5172C154.437 56.6305 152.138 63.7078 147.744 69.3054C147.274 69.9028 148.009 70.6927 148.595 70.1554C161.924 57.9257 179.535 51.3336 191.986 38.0333C191.645 37.8929 191.3 37.7486 190.959 37.6083C190.979 40.0542 189.546 42.027 188.274 43.9998C186.982 46.0087 185.69 48.0176 184.398 50.0265C181.886 53.932 179.371 57.8375 176.859 61.743C171.831 69.554 166.807 77.361 161.78 85.172C161.358 85.8256 162.402 86.427 162.819 85.7774C168.132 77.5214 173.444 69.2653 178.761 61.0092C181.345 56.9914 183.929 52.9776 186.517 48.9599C188.664 45.6238 192.199 41.7944 192.166 37.6123C192.162 37.107 191.5 36.7983 191.139 37.1872C178.696 50.4796 161.078 57.0756 147.748 69.3094C148.033 69.5941 148.314 69.8748 148.599 70.1594C152.651 64.9989 155.043 58.7236 155.287 52.1516C155.42 48.583 154.405 45.1787 154.385 41.6421C154.365 37.5321 156.652 34.204 159.26 31.2247C163.208 26.7178 168.87 21.7056 167.899 15.0413C167.04 9.17107 161.262 5.77881 159.276 0.409749C158.911 0.566129 158.542 0.718498 158.176 0.874879C163.148 7.85987 155.536 14.7166 150.172 18.2211C145.437 21.3126 140.064 24.4723 138.174 30.1541C136.068 36.4976 139.085 43.1658 137.729 49.6014C137.027 52.9255 135.293 55.0507 132.42 56.7428C130.55 57.8455 128.644 58.9963 128.532 61.3701C128.925 61.3179 129.319 61.2618 129.716 61.2097C125.298 41.8947 120.042 22.7842 113.967 3.92229C113.726 3.18049 112.566 3.49325 112.803 4.23506Z"/>
<path d="M222.296 65.3357C219.909 70.4121 213.794 71.0817 208.826 70.8572C203.173 70.6005 198.077 70.2557 192.853 72.8139C183.704 77.2928 174.612 89.1537 163.232 84.787C162.51 84.5104 162.197 85.6732 162.911 85.9459C174.479 90.3887 183.692 78.9047 192.893 74.1371C195.982 72.5372 199.176 71.7553 202.663 71.7553C205.925 71.7553 209.188 72.2846 212.454 72.0721C216.779 71.7874 221.386 70.0913 223.336 65.9412C223.661 65.2435 222.625 64.634 222.296 65.3357Z"/>
<path d="M221.345 66.671C220.386 69.6542 220.378 72.846 219.415 75.8212C218.364 79.0731 215.941 81.1221 212.771 82.2008C207.35 84.0453 201.359 83.0308 196.031 85.2482C190.65 87.4896 189.322 92.5981 186.649 97.2454C183.471 102.771 177.268 105.818 170.956 105.165C170.186 105.084 170.194 106.287 170.956 106.368C176.558 106.949 182.292 104.72 185.931 100.393C187.905 98.0433 188.952 95.1723 190.353 92.4818C192.066 89.1817 194.43 86.8721 198.061 85.8135C203.791 84.1415 210.151 85.2522 215.543 82.313C221.506 79.0651 220.699 72.6255 222.509 66.9958C222.742 66.254 221.582 65.9372 221.345 66.671Z"/>
<path d="M218.645 69.7986C217.429 74.5501 212.514 76.7595 208.06 77.5294C202.848 78.4276 197.391 77.6858 192.379 79.6826C188.154 81.3667 185.301 84.9194 182.488 88.3236C179.026 92.5138 174.351 97.4699 168.336 96.2389C167.582 96.0825 167.257 97.2413 168.015 97.3977C180.109 99.8758 184.033 83.4718 193.984 80.3883C202.041 77.8903 216.952 81.2785 219.805 70.1194C219.997 69.3655 218.838 69.0447 218.645 69.7986Z"/>
<path d="M60.4398 9.68832C65.945 11.9338 71.4381 15.1215 70.7479 21.9261C70.1501 27.8204 67.9753 33.2537 68.7136 39.2924C69.3877 44.8058 72.4573 48.5308 76.5219 52.0554C80.6107 55.6 86.7418 61.3219 83.1466 67.2484C82.7453 67.914 83.7846 68.5155 84.1858 67.8538C87.0949 63.0582 84.0935 57.4886 80.5144 54.0041C78.2072 51.7587 75.5389 49.8821 73.4403 47.4201C71.0729 44.6454 69.9494 41.2251 69.7769 37.6083C69.6164 34.2601 70.1461 30.92 70.8402 27.656C71.4983 24.5806 72.4854 21.3647 71.8032 18.197C70.6677 12.9322 65.2789 10.37 60.7608 8.5255C60.0426 8.23679 59.7296 9.39962 60.4398 9.68832Z"/>
<path d="M62.0568 9.84871C68.3765 7.52306 75.0654 10.795 78.5964 16.2002C82.0432 21.477 81.9749 27.2831 82.8336 33.2697C83.1787 35.6635 83.8006 38.0373 85.2532 40.0141C86.7137 42.0029 88.8083 43.2941 90.963 44.4168C93.7035 45.8443 96.432 47.1274 98.7352 49.2486C101.034 51.3657 102.788 53.9159 104.044 56.7709C104.353 57.4766 105.392 56.8671 105.083 56.1654C102.555 50.4114 98.1815 46.7224 92.6763 43.9397C89.6709 42.424 86.6977 40.804 85.2251 37.6083C83.8046 34.5288 83.8247 31.0002 83.4997 27.6881C82.942 21.9782 81.0681 16.152 76.7667 12.1343C72.7823 8.41723 66.9401 6.77323 61.7399 8.68989C61.0176 8.95454 61.3266 10.1174 62.0568 9.84871Z"/>
<path d="M62.7149 10.799C65.4514 12.2385 68.188 13.678 70.9205 15.1215C73.7212 16.6011 76.221 18.0567 76.2892 21.5973C76.3374 24.1796 75.4586 26.7017 75.3583 29.28C75.258 31.8302 75.6432 34.4125 76.4658 36.8304C78.1149 41.6902 81.4573 45.1586 85.3013 48.4065C89.5546 51.9993 94.4258 56.017 94.6986 62.0317C94.7347 62.8015 95.9385 62.8056 95.9024 62.0317C95.6656 56.7989 92.2068 52.7852 88.4351 49.4932C83.6923 45.3511 78.9696 41.63 77.2482 35.2625C76.4056 32.147 76.4337 29.0675 76.9794 25.9078C77.3846 23.5701 77.9143 21.0439 76.9834 18.7664C76.1528 16.7295 74.3392 15.5867 72.4733 14.5842C69.4359 12.9563 66.3783 11.3724 63.3288 9.76451C62.6387 9.39962 62.0288 10.4381 62.7149 10.799Z"/>
<path d="M34.0094 41.3293C44.1771 56.7348 54.3448 72.1363 64.5085 87.5417C64.8736 88.0951 65.8045 87.7583 65.6079 87.0766C64.3881 82.8183 60.488 80.5126 56.3551 79.6265C50.4447 78.3634 44.5824 80.3081 38.6439 80.0716C32.288 79.8149 28.4521 75.8814 24.0784 71.8315C20.8243 68.8162 16.9924 65.9693 12.2937 66.6629C6.59594 67.501 2.764 72.8019 0.0876607 77.4291C-0.26544 78.0386 0.529031 78.6 1.03461 78.1589C5.54868 74.2133 12.9156 74.1893 17.2973 78.3915C21.382 82.305 22.2969 88.3637 25.9804 92.586C29.8043 96.9687 35.7308 97.5742 41.1798 97.9872C46.8775 98.4162 53.9355 99.142 56.8887 104.832C57.0091 104.539 57.1295 104.242 57.2499 103.95C39.667 109.126 22.0802 114.307 4.4974 119.483C3.97578 119.636 3.87547 120.554 4.4974 120.642C22.8747 123.293 41.1677 126.489 59.3524 130.226C59.4046 129.833 59.4608 129.44 59.5129 129.043C54.072 128.477 48.5788 129.793 43.9364 132.676C41.6332 134.107 39.5587 135.915 37.8534 138.021C36.0879 140.206 34.9925 142.72 33.568 145.118C31.6059 148.43 28.8493 149.978 25.0455 150.29C22.2247 150.523 19.3597 150.25 16.563 150.788C12.073 151.65 8.24108 154.677 5.8416 158.502C3.0529 162.949 2.18218 168.515 4.07608 173.467C4.28875 174.02 5.03909 174.052 5.2357 173.467C7.45061 166.939 14.0913 162.492 20.9928 163.106C24.7846 163.442 28.4561 165.002 32.3081 164.693C34.7236 164.497 36.8623 163.499 38.688 161.935C42.5239 158.647 44.4821 153.699 48.3421 150.439C50.8981 148.282 53.7991 147.997 57.0292 147.868C59.6734 147.76 62.1973 147.528 64.2758 145.735C63.9588 145.491 63.6458 145.25 63.3288 145.006C55.2958 161.975 46.6889 178.663 37.5203 195.047C37.1713 195.669 37.9537 196.202 38.4673 195.777C52.4469 184.105 66.9641 173.094 81.9709 162.773C81.6981 162.5 81.4212 162.223 81.1484 161.951C77.9905 166.237 74.5357 171.109 74.7524 176.691C74.8688 179.666 76.0886 182.393 76.871 185.223C77.6535 188.058 77.6856 190.793 76.7025 193.572C73.5406 202.493 63.9106 208.28 64.4523 218.597C64.7292 223.885 67.3815 228.781 71.6548 231.893C72.2205 232.306 72.8465 231.424 72.385 230.947C69.9815 228.469 70.439 224.647 72.1403 221.901C73.8576 219.13 76.6504 217.225 79.1261 215.2C83.6562 211.503 87.3517 206.896 89.8635 201.611C92.2108 196.671 93.0214 191.491 94.0325 186.178C94.9875 181.153 96.4079 175.58 101.432 173.198C101.139 173.078 100.842 172.958 100.549 172.837C106.327 191.394 110.664 210.373 113.521 229.599C113.614 230.217 114.528 230.125 114.681 229.599C120.078 210.906 124.363 191.912 127.509 172.713C127.633 171.967 126.53 171.626 126.349 172.392C125.23 177.088 124.058 182.745 127.023 187.028C129.76 190.981 134.78 191.864 138.724 194.121C148.386 199.654 143.25 213.099 149.642 220.902C153 225.004 158.369 227.185 163.625 226.568C164.179 226.504 164.492 225.774 163.93 225.445C153.879 219.623 160.464 204.643 157.908 195.693C156.287 190.019 151.042 187.665 147.784 183.146C144.301 178.319 142.985 172.172 144.133 166.341C143.84 166.462 143.543 166.582 143.25 166.702C158.626 177.829 174.672 188.002 191.3 197.164C191.841 197.461 192.395 196.872 192.122 196.342C183.532 179.662 173.877 163.547 163.228 148.097C162.931 147.664 162.02 147.752 162.105 148.402C162.679 152.676 165.632 156.076 169.544 157.773C174.832 160.062 180.695 158.739 185.819 156.702C187.279 156.121 188.82 155.471 190.421 155.475C192.166 155.479 193.631 156.341 194.987 157.348C197.282 159.056 199.433 160.944 201.768 162.604C205.817 165.483 210.423 167.929 215.487 168.114C220.314 168.286 225.189 166.486 227.902 162.34C228.223 161.851 227.693 161.389 227.224 161.458C221.767 162.248 215.218 160.988 212.442 155.696C211.11 153.161 210.552 150.479 208.546 148.326C206.928 146.585 204.842 145.358 202.655 144.468C196.99 142.163 190.71 142.447 184.952 140.483C178.961 138.438 174.736 133.638 170.728 128.983C170.639 129.319 170.551 129.652 170.463 129.989C187.753 125.378 205.167 121.26 222.69 117.639C223.271 117.519 223.255 116.608 222.69 116.48C206.583 112.763 190.477 109.046 174.371 105.329C173.617 105.157 173.296 106.315 174.05 106.488C190.156 110.205 206.262 113.922 222.369 117.639C222.369 117.254 222.369 116.865 222.369 116.48C204.846 120.101 187.432 124.219 170.142 128.83C169.68 128.955 169.588 129.504 169.877 129.837C173.705 134.283 177.75 138.887 183.315 141.156C189.542 143.694 196.572 143.093 202.747 145.808C205.584 147.055 208.08 148.979 209.484 151.79C210.865 154.553 211.479 157.388 213.902 159.497C217.594 162.709 222.87 163.294 227.541 162.616C227.316 162.324 227.087 162.027 226.863 161.734C223.621 166.69 216.984 167.801 211.587 166.305C205.332 164.569 200.677 160.062 195.597 156.313C193.442 154.721 191.224 153.899 188.539 154.505C185.261 155.246 182.344 156.955 178.981 157.508C172.473 158.579 164.308 155.84 163.309 148.406C162.935 148.506 162.562 148.606 162.185 148.711C172.838 164.16 182.488 180.275 191.079 196.956C191.352 196.683 191.629 196.407 191.902 196.134C175.274 186.976 159.228 176.803 143.852 165.672C143.551 165.451 143.037 165.672 142.969 166.033C141.918 171.386 142.764 176.951 145.445 181.723C148.603 187.345 155.312 190.107 156.905 196.619C159.176 205.91 152.856 220.429 163.325 226.492C163.425 226.119 163.525 225.746 163.63 225.369C156.989 226.151 150.452 222.262 148.225 215.91C146.356 210.573 147.042 204.655 144.899 199.394C142.752 194.125 138.01 192.525 133.231 190.276C130.213 188.856 127.673 186.916 126.751 183.567C125.78 180.035 126.686 176.181 127.513 172.717C127.128 172.609 126.738 172.504 126.353 172.396C123.207 191.595 118.926 210.593 113.525 229.283C113.91 229.283 114.3 229.283 114.685 229.283C111.828 210.056 107.49 191.078 101.712 172.52C101.588 172.128 101.183 171.991 100.83 172.16C96.0629 174.421 94.2412 179.425 93.1979 184.273C91.8216 190.657 91.1154 196.86 87.9616 202.722C86.2643 205.878 84.1297 208.793 81.6138 211.347C79.1983 213.801 76.3173 215.69 73.8336 218.055C70.2103 221.5 67.4537 227.586 71.5384 231.801C71.7832 231.484 72.0239 231.171 72.2687 230.854C66.9361 226.973 64.36 219.804 66.2579 213.44C67.9392 207.798 72.373 203.508 75.4667 198.648C76.8229 196.515 77.9985 194.205 78.468 191.703C79.0177 188.788 78.4199 186.025 77.5291 183.243C76.3213 179.473 75.3824 176.017 76.6383 172.107C77.7698 168.579 80.0208 165.511 82.1956 162.56C82.5527 162.075 81.8546 161.405 81.3731 161.738C66.282 172.116 51.6845 183.19 37.6247 194.931C37.9417 195.176 38.2546 195.416 38.5716 195.661C47.7402 179.277 56.3471 162.588 64.3801 145.619C64.673 145.002 63.9668 144.432 63.4331 144.889C59.7135 148.093 53.8954 145.816 49.6421 148.101C46.2395 149.934 44.0808 153.398 41.8739 156.433C38.9328 160.479 35.6545 163.892 30.2256 163.487C24.6964 163.078 19.8051 160.784 14.2959 162.789C9.50902 164.529 5.72122 168.326 4.08412 173.154C4.46932 173.154 4.85852 173.154 5.24372 173.154C1.62845 163.707 8.68646 152.496 18.7739 151.722C23.5969 151.353 29.1302 152.231 32.7695 148.286C34.4668 146.445 35.4419 144.111 36.6536 141.954C37.9858 139.58 39.7192 137.467 41.8017 135.711C46.705 131.577 53.1411 129.584 59.5169 130.246C60.191 130.314 60.3395 129.199 59.6774 129.063C41.4927 125.326 23.1997 122.13 4.82242 119.479C4.82242 119.864 4.82242 120.253 4.82242 120.638C22.4052 115.462 39.9921 110.281 57.5749 105.104C57.9601 104.992 58.1166 104.567 57.936 104.222C53.0849 94.8716 40.4575 98.1997 32.272 95.3287C22.3009 91.8322 23.4726 77.9624 13.337 74.6784C8.82289 73.2149 3.76712 74.1812 0.191978 77.3048C0.508966 77.5494 0.821948 77.79 1.13894 78.0346C4.27672 72.6174 9.58526 65.8369 16.7315 68.2508C21.9719 70.0191 25.2782 75.2599 29.6799 78.3474C35.5663 82.4774 42.3514 81.078 49.0362 80.4966C54.6618 80.0074 62.6266 80.9898 64.4603 87.3974C64.8255 87.241 65.1946 87.0886 65.5598 86.9323C55.3921 71.5268 45.2244 56.1253 35.0607 40.7198C34.6273 40.0783 33.5841 40.6797 34.0094 41.3293Z"/>
<path d="M113.646 7.86789C118.529 24.6768 113.991 42.3197 116.511 59.4133C116.623 60.1752 117.783 59.8504 117.67 59.0925C115.146 41.9909 119.697 24.3801 114.805 7.54711C114.589 6.80531 113.429 7.12208 113.646 7.86789Z"/>
<path d="M159.501 4.43554C160.636 7.9521 161.699 11.7253 160.817 15.4263C160.195 18.0206 158.61 20.226 156.824 22.1506C153.554 25.6792 149.445 28.5382 146.99 32.7605C143.892 38.0854 144.863 44.2965 144.943 50.1588C145.015 55.4837 143.828 61.9635 138.443 64.3974C137.737 64.7182 138.351 65.7527 139.049 65.436C143.852 63.2627 145.665 57.9377 146.067 53.0258C146.616 46.2773 144.458 39.0598 148.298 32.9208C151.135 28.3858 155.861 25.4827 159.127 21.3046C163.26 16.0157 162.63 10.2016 160.664 4.11476C160.423 3.38098 159.264 3.69374 159.501 4.43554Z"/>
<path d="M189.558 40.1424C176.67 50.8124 165.291 63.2426 153.602 75.1797C153.061 75.733 153.911 76.5831 154.453 76.0297C166.137 64.0967 177.521 51.6624 190.409 40.9925C191.007 40.4993 190.152 39.6532 189.558 40.1424Z"/>
<path d="M218.697 116.264C203.048 116.909 187.4 117.555 171.747 118.2C170.976 118.232 170.972 119.435 171.747 119.403C187.396 118.758 203.044 118.112 218.697 117.467C219.472 117.434 219.476 116.232 218.697 116.264Z"/>
<path d="M36.5092 42.7568C45.0518 43.7833 52.0978 49.4972 59.1398 53.952C66.6953 58.7316 74.4475 63.1905 82.304 67.4609C82.9861 67.8298 83.592 66.7913 82.9099 66.4224C74.608 61.9074 66.4185 57.1799 58.4536 52.0915C51.5922 47.7088 44.8311 42.5563 36.5092 41.5539C35.7428 41.4616 35.7468 42.6686 36.5092 42.7568Z"/>
<path d="M36.5253 43.0214C38.2145 46.1771 41.2921 47.8893 44.1972 49.7738C48.1655 52.3481 50.5329 56.0812 53.7028 59.4694C59.6734 65.845 67.6021 70.2116 72.6258 77.4933C73.0632 78.1268 74.1064 77.5254 73.665 76.8878C68.8179 69.8587 61.3707 65.5041 55.4362 59.5336C52.4669 56.5423 50.2721 52.7892 46.9056 50.2029C43.6836 47.7289 39.5707 46.1611 37.5645 42.416C37.1994 41.7303 36.1601 42.3398 36.5253 43.0214Z"/>
<path d="M223.528 162.015C218.24 164.854 211.394 163.928 207.205 159.557C203.586 155.78 201.78 150.88 196.64 148.751C187.781 145.086 172.866 150.908 167.249 140.803C166.872 140.126 165.832 140.731 166.21 141.409C172.284 152.339 187.44 145.755 196.725 150.094C202.374 152.732 203.975 159.525 209.204 162.705C213.726 165.455 219.5 165.544 224.138 163.053C224.82 162.685 224.21 161.646 223.528 162.015Z"/>
<path d="M189.655 193.7C177.352 182.068 165.05 170.439 152.744 158.807C152.182 158.274 151.327 159.124 151.893 159.657C164.195 171.289 176.498 182.918 188.804 194.55C189.366 195.083 190.216 194.233 189.655 193.7Z"/>
<path d="M160.708 224.166C157.892 223.344 154.858 222.426 152.732 220.293C150.601 218.16 149.975 215.208 150.003 212.289C150.055 206.968 152.218 201.728 151.131 196.391C150.031 191.014 145.14 188.752 141.785 184.939C137.861 180.48 135.935 174.586 136.236 168.683C136.276 167.909 135.072 167.913 135.032 168.683C134.743 174.313 136.413 179.939 139.831 184.442C141.581 186.747 143.8 188.435 145.942 190.34C148.639 192.734 150.119 195.436 150.22 199.093C150.376 204.799 147.852 210.425 149.168 216.131C150.448 221.684 155.384 223.865 160.383 225.321C161.134 225.546 161.451 224.383 160.708 224.166Z"/>
<path d="M112.964 226.38C114.408 208.769 114.28 191.07 112.586 173.483C112.514 172.721 111.306 172.713 111.383 173.483C113.08 191.07 113.204 208.769 111.76 226.38C111.696 227.149 112.899 227.145 112.964 226.38Z"/>
<path d="M70.4711 228.228C66.8277 216.459 78.1631 208.668 83.592 199.935C86.3967 195.424 85.8671 190.737 85.7226 185.66C85.5541 179.762 86.9505 174.02 89.7512 168.828C90.1203 168.146 89.0811 167.536 88.7119 168.222C86.172 172.929 84.6834 178.134 84.5149 183.491C84.4226 186.454 84.88 189.41 84.7235 192.369C84.551 195.637 83.3312 198.387 81.4092 200.994C75.4626 209.057 65.8366 217.342 69.3075 228.549C69.5402 229.287 70.7038 228.97 70.4711 228.228Z"/>
<path d="M39.4343 193.612C49.8668 180.604 60.9775 168.158 72.7221 156.317C73.2678 155.768 72.4171 154.914 71.8714 155.467C60.1268 167.308 49.0162 179.754 38.5837 192.762C38.1022 193.359 38.9488 194.213 39.4343 193.612Z"/>
<path d="M6.4194 168.447C7.00121 165.604 7.62315 162.504 9.84207 160.439C11.9406 158.49 14.9259 157.897 17.6665 157.496C22.9429 156.722 28.2394 156.145 33.2189 154.088C35.4017 153.185 37.4602 152.031 39.2858 150.523C41.2841 148.875 42.6524 146.826 44.1851 144.769C48.0813 139.544 54.08 138.582 60.191 137.968C60.9534 137.892 60.9614 136.689 60.191 136.766C54.9146 137.291 49.0643 137.964 45.0839 141.854C42.9774 143.911 41.6653 146.63 39.5467 148.682C37.2595 150.9 34.4026 152.432 31.4213 153.494C25.8761 155.471 20.0499 155.467 14.4083 156.886C12.0409 157.48 9.7578 158.538 8.1849 160.459C6.41538 162.624 5.8095 165.455 5.2638 168.122C5.1033 168.88 6.26692 169.204 6.4194 168.447Z"/>
<path d="M5.65301 121.083C23.1716 120.241 40.6902 119.395 58.2089 118.553C58.9793 118.517 58.9833 117.314 58.2089 117.35C40.6902 118.192 23.1716 119.038 5.65301 119.88C4.88261 119.917 4.8786 121.119 5.65301 121.083Z"/>
<path d="M3.34982 76.551C7.45462 72.5693 14.4404 71.8877 19.7048 73.7121C23.0793 74.8829 24.5359 77.2607 25.7557 80.4525C26.5542 82.5416 27.5011 84.4141 29.2706 85.8536C33.2189 89.0574 38.5074 89.1777 43.3425 89.0133C49.1486 88.8168 56.3992 88.4961 60.0185 94.0215C60.4398 94.6671 61.4831 94.0656 61.0577 93.416C58.0082 88.7567 52.3426 87.6781 47.1303 87.7021C40.8186 87.7302 31.7945 89.1216 27.9906 82.5456C26.5702 80.0916 26.2291 77.1605 24.1908 75.0634C22.4173 73.2429 19.9014 72.3287 17.4418 71.9237C12.2375 71.0657 6.39533 71.9157 2.49517 75.7049C1.94144 76.2422 2.7961 77.0923 3.34982 76.551Z"/>
</mask>
<path d="M124.969 61.0052C112.049 58.0821 97.8765 60.7165 86.0035 66.2981C79.9807 69.129 76.0083 73.7682 71.8594 78.8125C67.8389 83.7004 63.8986 88.7647 61.15 94.4987C55.7692 105.734 55.9699 119.588 58.8669 131.501C61.8281 143.686 68.5812 153.879 78.5162 161.51C88.1662 168.92 99.4294 173.443 111.627 174.028C122.838 174.565 134.246 171.923 143.968 166.285C163.128 155.182 173.986 132.375 171.598 110.502C169.243 88.9492 153.502 70.1514 133.15 63.0301C130.594 62.1359 127.978 61.4503 125.318 60.941C124.56 60.7967 124.239 61.9555 124.997 62.0998C145.557 66.0374 163.216 82.0684 168.814 102.286C174.475 122.719 167.205 145.992 151.118 159.761C134.302 174.16 108.674 177.011 89.045 166.839C77.9063 161.069 68.2842 152.171 63.1803 140.595C58.3814 129.7 56.9008 116.661 59.0194 104.948C60.1589 98.6608 62.9115 92.983 66.5107 87.7422C69.9454 82.7461 73.8576 77.8141 78.0427 73.4194C82.6049 68.6277 88.6517 66.1657 94.8551 64.205C101.247 62.1881 107.92 60.921 114.641 60.9851C118.015 61.0172 121.358 61.4142 124.648 62.156C125.402 62.3364 125.723 61.1776 124.969 61.0052Z" stroke="black" stroke-width="6" mask="url(#path-3-inside-1_292_585)"/>
<path d="M112.891 7.37469C109.593 25.1339 106.299 42.8971 103 60.6563C102.86 61.4142 104.02 61.739 104.16 60.9771C107.458 43.2179 110.753 25.4547 114.051 7.69548C114.195 6.93763 113.036 6.61284 112.891 7.37469Z" stroke="black" stroke-width="6" mask="url(#path-3-inside-1_292_585)"/>
<path d="M112.803 4.23506C118.882 23.0929 124.134 42.2074 128.552 61.5224C128.709 62.2081 129.704 62.0196 129.736 61.362C129.872 58.4389 134.358 57.4084 136.14 55.5319C137.913 53.6633 138.76 51.1412 139.105 48.6311C140.064 41.7263 136.593 34.1358 140.614 27.7964C144.257 22.0544 151.227 19.8009 156.058 15.302C160.074 11.5609 162.743 5.22145 159.212 0.261387C158.847 -0.251862 157.855 0.0368418 158.112 0.72652C160.018 5.88307 165.455 9.2272 166.615 14.6644C168.176 21.9862 160.652 27.2912 156.752 32.3715C155.023 34.621 153.606 37.1431 153.265 39.9981C152.884 43.1898 153.891 46.3415 154.06 49.5172C154.437 56.6305 152.138 63.7078 147.744 69.3054C147.274 69.9028 148.009 70.6927 148.595 70.1554C161.924 57.9257 179.535 51.3336 191.986 38.0333C191.645 37.8929 191.3 37.7486 190.959 37.6083C190.979 40.0542 189.546 42.027 188.274 43.9998C186.982 46.0087 185.69 48.0176 184.398 50.0265C181.886 53.932 179.371 57.8375 176.859 61.743C171.831 69.554 166.807 77.361 161.78 85.172C161.358 85.8256 162.402 86.427 162.819 85.7774C168.132 77.5214 173.444 69.2653 178.761 61.0092C181.345 56.9914 183.929 52.9776 186.517 48.9599C188.664 45.6238 192.199 41.7944 192.166 37.6123C192.162 37.107 191.5 36.7983 191.139 37.1872C178.696 50.4796 161.078 57.0756 147.748 69.3094C148.033 69.5941 148.314 69.8748 148.599 70.1594C152.651 64.9989 155.043 58.7236 155.287 52.1516C155.42 48.583 154.405 45.1787 154.385 41.6421C154.365 37.5321 156.652 34.204 159.26 31.2247C163.208 26.7178 168.87 21.7056 167.899 15.0413C167.04 9.17107 161.262 5.77881 159.276 0.409749C158.911 0.566129 158.542 0.718498 158.176 0.874879C163.148 7.85987 155.536 14.7166 150.172 18.2211C145.437 21.3126 140.064 24.4723 138.174 30.1541C136.068 36.4976 139.085 43.1658 137.729 49.6014C137.027 52.9255 135.293 55.0507 132.42 56.7428C130.55 57.8455 128.644 58.9963 128.532 61.3701C128.925 61.3179 129.319 61.2618 129.716 61.2097C125.298 41.8947 120.042 22.7842 113.967 3.92229C113.726 3.18049 112.566 3.49325 112.803 4.23506Z" stroke="black" stroke-width="6" mask="url(#path-3-inside-1_292_585)"/>
<path d="M222.296 65.3357C219.909 70.4121 213.794 71.0817 208.826 70.8572C203.173 70.6005 198.077 70.2557 192.853 72.8139C183.704 77.2928 174.612 89.1537 163.232 84.787C162.51 84.5104 162.197 85.6732 162.911 85.9459C174.479 90.3887 183.692 78.9047 192.893 74.1371C195.982 72.5372 199.176 71.7553 202.663 71.7553C205.925 71.7553 209.188 72.2846 212.454 72.0721C216.779 71.7874 221.386 70.0913 223.336 65.9412C223.661 65.2435 222.625 64.634 222.296 65.3357Z" stroke="black" stroke-width="6" mask="url(#path-3-inside-1_292_585)"/>
<path d="M221.345 66.671C220.386 69.6542 220.378 72.846 219.415 75.8212C218.364 79.0731 215.941 81.1221 212.771 82.2008C207.35 84.0453 201.359 83.0308 196.031 85.2482C190.65 87.4896 189.322 92.5981 186.649 97.2454C183.471 102.771 177.268 105.818 170.956 105.165C170.186 105.084 170.194 106.287 170.956 106.368C176.558 106.949 182.292 104.72 185.931 100.393C187.905 98.0433 188.952 95.1723 190.353 92.4818C192.066 89.1817 194.43 86.8721 198.061 85.8135C203.791 84.1415 210.151 85.2522 215.543 82.313C221.506 79.0651 220.699 72.6255 222.509 66.9958C222.742 66.254 221.582 65.9372 221.345 66.671Z" stroke="black" stroke-width="6" mask="url(#path-3-inside-1_292_585)"/>
<path d="M218.645 69.7986C217.429 74.5501 212.514 76.7595 208.06 77.5294C202.848 78.4276 197.391 77.6858 192.379 79.6826C188.154 81.3667 185.301 84.9194 182.488 88.3236C179.026 92.5138 174.351 97.4699 168.336 96.2389C167.582 96.0825 167.257 97.2413 168.015 97.3977C180.109 99.8758 184.033 83.4718 193.984 80.3883C202.041 77.8903 216.952 81.2785 219.805 70.1194C219.997 69.3655 218.838 69.0447 218.645 69.7986Z" stroke="black" stroke-width="6" mask="url(#path-3-inside-1_292_585)"/>
<path d="M60.4398 9.68832C65.945 11.9338 71.4381 15.1215 70.7479 21.9261C70.1501 27.8204 67.9753 33.2537 68.7136 39.2924C69.3877 44.8058 72.4573 48.5308 76.5219 52.0554C80.6107 55.6 86.7418 61.3219 83.1466 67.2484C82.7453 67.914 83.7846 68.5155 84.1858 67.8538C87.0949 63.0582 84.0935 57.4886 80.5144 54.0041C78.2072 51.7587 75.5389 49.8821 73.4403 47.4201C71.0729 44.6454 69.9494 41.2251 69.7769 37.6083C69.6164 34.2601 70.1461 30.92 70.8402 27.656C71.4983 24.5806 72.4854 21.3647 71.8032 18.197C70.6677 12.9322 65.2789 10.37 60.7608 8.5255C60.0426 8.23679 59.7296 9.39962 60.4398 9.68832Z" stroke="black" stroke-width="6" mask="url(#path-3-inside-1_292_585)"/>
<path d="M62.0568 9.84871C68.3765 7.52306 75.0654 10.795 78.5964 16.2002C82.0432 21.477 81.9749 27.2831 82.8336 33.2697C83.1787 35.6635 83.8006 38.0373 85.2532 40.0141C86.7137 42.0029 88.8083 43.2941 90.963 44.4168C93.7035 45.8443 96.432 47.1274 98.7352 49.2486C101.034 51.3657 102.788 53.9159 104.044 56.7709C104.353 57.4766 105.392 56.8671 105.083 56.1654C102.555 50.4114 98.1815 46.7224 92.6763 43.9397C89.6709 42.424 86.6977 40.804 85.2251 37.6083C83.8046 34.5288 83.8247 31.0002 83.4997 27.6881C82.942 21.9782 81.0681 16.152 76.7667 12.1343C72.7823 8.41723 66.9401 6.77323 61.7399 8.68989C61.0176 8.95454 61.3266 10.1174 62.0568 9.84871Z" stroke="black" stroke-width="6" mask="url(#path-3-inside-1_292_585)"/>
<path d="M62.7149 10.799C65.4514 12.2385 68.188 13.678 70.9205 15.1215C73.7212 16.6011 76.221 18.0567 76.2892 21.5973C76.3374 24.1796 75.4586 26.7017 75.3583 29.28C75.258 31.8302 75.6432 34.4125 76.4658 36.8304C78.1149 41.6902 81.4573 45.1586 85.3013 48.4065C89.5546 51.9993 94.4258 56.017 94.6986 62.0317C94.7347 62.8015 95.9385 62.8056 95.9024 62.0317C95.6656 56.7989 92.2068 52.7852 88.4351 49.4932C83.6923 45.3511 78.9696 41.63 77.2482 35.2625C76.4056 32.147 76.4337 29.0675 76.9794 25.9078C77.3846 23.5701 77.9143 21.0439 76.9834 18.7664C76.1528 16.7295 74.3392 15.5867 72.4733 14.5842C69.4359 12.9563 66.3783 11.3724 63.3288 9.76451C62.6387 9.39962 62.0288 10.4381 62.7149 10.799Z" stroke="black" stroke-width="6" mask="url(#path-3-inside-1_292_585)"/>
<path d="M34.0094 41.3293C44.1771 56.7348 54.3448 72.1363 64.5085 87.5417C64.8736 88.0951 65.8045 87.7583 65.6079 87.0766C64.3881 82.8183 60.488 80.5126 56.3551 79.6265C50.4447 78.3634 44.5824 80.3081 38.6439 80.0716C32.288 79.8149 28.4521 75.8814 24.0784 71.8315C20.8243 68.8162 16.9924 65.9693 12.2937 66.6629C6.59594 67.501 2.764 72.8019 0.0876607 77.4291C-0.26544 78.0386 0.529031 78.6 1.03461 78.1589C5.54868 74.2133 12.9156 74.1893 17.2973 78.3915C21.382 82.305 22.2969 88.3637 25.9804 92.586C29.8043 96.9687 35.7308 97.5742 41.1798 97.9872C46.8775 98.4162 53.9355 99.142 56.8887 104.832C57.0091 104.539 57.1295 104.242 57.2499 103.95C39.667 109.126 22.0802 114.307 4.4974 119.483C3.97578 119.636 3.87547 120.554 4.4974 120.642C22.8747 123.293 41.1677 126.489 59.3524 130.226C59.4046 129.833 59.4608 129.44 59.5129 129.043C54.072 128.477 48.5788 129.793 43.9364 132.676C41.6332 134.107 39.5587 135.915 37.8534 138.021C36.0879 140.206 34.9925 142.72 33.568 145.118C31.6059 148.43 28.8493 149.978 25.0455 150.29C22.2247 150.523 19.3597 150.25 16.563 150.788C12.073 151.65 8.24108 154.677 5.8416 158.502C3.0529 162.949 2.18218 168.515 4.07608 173.467C4.28875 174.02 5.03909 174.052 5.2357 173.467C7.45061 166.939 14.0913 162.492 20.9928 163.106C24.7846 163.442 28.4561 165.002 32.3081 164.693C34.7236 164.497 36.8623 163.499 38.688 161.935C42.5239 158.647 44.4821 153.699 48.3421 150.439C50.8981 148.282 53.7991 147.997 57.0292 147.868C59.6734 147.76 62.1973 147.528 64.2758 145.735C63.9588 145.491 63.6458 145.25 63.3288 145.006C55.2958 161.975 46.6889 178.663 37.5203 195.047C37.1713 195.669 37.9537 196.202 38.4673 195.777C52.4469 184.105 66.9641 173.094 81.9709 162.773C81.6981 162.5 81.4212 162.223 81.1484 161.951C77.9905 166.237 74.5357 171.109 74.7524 176.691C74.8688 179.666 76.0886 182.393 76.871 185.223C77.6535 188.058 77.6856 190.793 76.7025 193.572C73.5406 202.493 63.9106 208.28 64.4523 218.597C64.7292 223.885 67.3815 228.781 71.6548 231.893C72.2205 232.306 72.8465 231.424 72.385 230.947C69.9815 228.469 70.439 224.647 72.1403 221.901C73.8576 219.13 76.6504 217.225 79.1261 215.2C83.6562 211.503 87.3517 206.896 89.8635 201.611C92.2108 196.671 93.0214 191.491 94.0325 186.178C94.9875 181.153 96.4079 175.58 101.432 173.198C101.139 173.078 100.842 172.958 100.549 172.837C106.327 191.394 110.664 210.373 113.521 229.599C113.614 230.217 114.528 230.125 114.681 229.599C120.078 210.906 124.363 191.912 127.509 172.713C127.633 171.967 126.53 171.626 126.349 172.392C125.23 177.088 124.058 182.745 127.023 187.028C129.76 190.981 134.78 191.864 138.724 194.121C148.386 199.654 143.25 213.099 149.642 220.902C153 225.004 158.369 227.185 163.625 226.568C164.179 226.504 164.492 225.774 163.93 225.445C153.879 219.623 160.464 204.643 157.908 195.693C156.287 190.019 151.042 187.665 147.784 183.146C144.301 178.319 142.985 172.172 144.133 166.341C143.84 166.462 143.543 166.582 143.25 166.702C158.626 177.829 174.672 188.002 191.3 197.164C191.841 197.461 192.395 196.872 192.122 196.342C183.532 179.662 173.877 163.547 163.228 148.097C162.931 147.664 162.02 147.752 162.105 148.402C162.679 152.676 165.632 156.076 169.544 157.773C174.832 160.062 180.695 158.739 185.819 156.702C187.279 156.121 188.82 155.471 190.421 155.475C192.166 155.479 193.631 156.341 194.987 157.348C197.282 159.056 199.433 160.944 201.768 162.604C205.817 165.483 210.423 167.929 215.487 168.114C220.314 168.286 225.189 166.486 227.902 162.34C228.223 161.851 227.693 161.389 227.224 161.458C221.767 162.248 215.218 160.988 212.442 155.696C211.11 153.161 210.552 150.479 208.546 148.326C206.928 146.585 204.842 145.358 202.655 144.468C196.99 142.163 190.71 142.447 184.952 140.483C178.961 138.438 174.736 133.638 170.728 128.983C170.639 129.319 170.551 129.652 170.463 129.989C187.753 125.378 205.167 121.26 222.69 117.639C223.271 117.519 223.255 116.608 222.69 116.48C206.583 112.763 190.477 109.046 174.371 105.329C173.617 105.157 173.296 106.315 174.05 106.488C190.156 110.205 206.262 113.922 222.369 117.639C222.369 117.254 222.369 116.865 222.369 116.48C204.846 120.101 187.432 124.219 170.142 128.83C169.68 128.955 169.588 129.504 169.877 129.837C173.705 134.283 177.75 138.887 183.315 141.156C189.542 143.694 196.572 143.093 202.747 145.808C205.584 147.055 208.08 148.979 209.484 151.79C210.865 154.553 211.479 157.388 213.902 159.497C217.594 162.709 222.87 163.294 227.541 162.616C227.316 162.324 227.087 162.027 226.863 161.734C223.621 166.69 216.984 167.801 211.587 166.305C205.332 164.569 200.677 160.062 195.597 156.313C193.442 154.721 191.224 153.899 188.539 154.505C185.261 155.246 182.344 156.955 178.981 157.508C172.473 158.579 164.308 155.84 163.309 148.406C162.935 148.506 162.562 148.606 162.185 148.711C172.838 164.16 182.488 180.275 191.079 196.956C191.352 196.683 191.629 196.407 191.902 196.134C175.274 186.976 159.228 176.803 143.852 165.672C143.551 165.451 143.037 165.672 142.969 166.033C141.918 171.386 142.764 176.951 145.445 181.723C148.603 187.345 155.312 190.107 156.905 196.619C159.176 205.91 152.856 220.429 163.325 226.492C163.425 226.119 163.525 225.746 163.63 225.369C156.989 226.151 150.452 222.262 148.225 215.91C146.356 210.573 147.042 204.655 144.899 199.394C142.752 194.125 138.01 192.525 133.231 190.276C130.213 188.856 127.673 186.916 126.751 183.567C125.78 180.035 126.686 176.181 127.513 172.717C127.128 172.609 126.738 172.504 126.353 172.396C123.207 191.595 118.926 210.593 113.525 229.283C113.91 229.283 114.3 229.283 114.685 229.283C111.828 210.056 107.49 191.078 101.712 172.52C101.588 172.128 101.183 171.991 100.83 172.16C96.0629 174.421 94.2412 179.425 93.1979 184.273C91.8216 190.657 91.1154 196.86 87.9616 202.722C86.2643 205.878 84.1297 208.793 81.6138 211.347C79.1983 213.801 76.3173 215.69 73.8336 218.055C70.2103 221.5 67.4537 227.586 71.5384 231.801C71.7832 231.484 72.0239 231.171 72.2687 230.854C66.9361 226.973 64.36 219.804 66.2579 213.44C67.9392 207.798 72.373 203.508 75.4667 198.648C76.8229 196.515 77.9985 194.205 78.468 191.703C79.0177 188.788 78.4199 186.025 77.5291 183.243C76.3213 179.473 75.3824 176.017 76.6383 172.107C77.7698 168.579 80.0208 165.511 82.1956 162.56C82.5527 162.075 81.8546 161.405 81.3731 161.738C66.282 172.116 51.6845 183.19 37.6247 194.931C37.9417 195.176 38.2546 195.416 38.5716 195.661C47.7402 179.277 56.3471 162.588 64.3801 145.619C64.673 145.002 63.9668 144.432 63.4331 144.889C59.7135 148.093 53.8954 145.816 49.6421 148.101C46.2395 149.934 44.0808 153.398 41.8739 156.433C38.9328 160.479 35.6545 163.892 30.2256 163.487C24.6964 163.078 19.8051 160.784 14.2959 162.789C9.50902 164.529 5.72122 168.326 4.08412 173.154C4.46932 173.154 4.85852 173.154 5.24372 173.154C1.62845 163.707 8.68646 152.496 18.7739 151.722C23.5969 151.353 29.1302 152.231 32.7695 148.286C34.4668 146.445 35.4419 144.111 36.6536 141.954C37.9858 139.58 39.7192 137.467 41.8017 135.711C46.705 131.577 53.1411 129.584 59.5169 130.246C60.191 130.314 60.3395 129.199 59.6774 129.063C41.4927 125.326 23.1997 122.13 4.82242 119.479C4.82242 119.864 4.82242 120.253 4.82242 120.638C22.4052 115.462 39.9921 110.281 57.5749 105.104C57.9601 104.992 58.1166 104.567 57.936 104.222C53.0849 94.8716 40.4575 98.1997 32.272 95.3287C22.3009 91.8322 23.4726 77.9624 13.337 74.6784C8.82289 73.2149 3.76712 74.1812 0.191978 77.3048C0.508966 77.5494 0.821948 77.79 1.13894 78.0346C4.27672 72.6174 9.58526 65.8369 16.7315 68.2508C21.9719 70.0191 25.2782 75.2599 29.6799 78.3474C35.5663 82.4774 42.3514 81.078 49.0362 80.4966C54.6618 80.0074 62.6266 80.9898 64.4603 87.3974C64.8255 87.241 65.1946 87.0886 65.5598 86.9323C55.3921 71.5268 45.2244 56.1253 35.0607 40.7198C34.6273 40.0783 33.5841 40.6797 34.0094 41.3293Z" stroke="black" stroke-width="6" mask="url(#path-3-inside-1_292_585)"/>
<path d="M113.646 7.86789C118.529 24.6768 113.991 42.3197 116.511 59.4133C116.623 60.1752 117.783 59.8504 117.67 59.0925C115.146 41.9909 119.697 24.3801 114.805 7.54711C114.589 6.80531 113.429 7.12208 113.646 7.86789Z" stroke="black" stroke-width="6" mask="url(#path-3-inside-1_292_585)"/>
<path d="M159.501 4.43554C160.636 7.9521 161.699 11.7253 160.817 15.4263C160.195 18.0206 158.61 20.226 156.824 22.1506C153.554 25.6792 149.445 28.5382 146.99 32.7605C143.892 38.0854 144.863 44.2965 144.943 50.1588C145.015 55.4837 143.828 61.9635 138.443 64.3974C137.737 64.7182 138.351 65.7527 139.049 65.436C143.852 63.2627 145.665 57.9377 146.067 53.0258C146.616 46.2773 144.458 39.0598 148.298 32.9208C151.135 28.3858 155.861 25.4827 159.127 21.3046C163.26 16.0157 162.63 10.2016 160.664 4.11476C160.423 3.38098 159.264 3.69374 159.501 4.43554Z" stroke="black" stroke-width="6" mask="url(#path-3-inside-1_292_585)"/>
<path d="M189.558 40.1424C176.67 50.8124 165.291 63.2426 153.602 75.1797C153.061 75.733 153.911 76.5831 154.453 76.0297C166.137 64.0967 177.521 51.6624 190.409 40.9925C191.007 40.4993 190.152 39.6532 189.558 40.1424Z" stroke="black" stroke-width="6" mask="url(#path-3-inside-1_292_585)"/>
<path d="M218.697 116.264C203.048 116.909 187.4 117.555 171.747 118.2C170.976 118.232 170.972 119.435 171.747 119.403C187.396 118.758 203.044 118.112 218.697 117.467C219.472 117.434 219.476 116.232 218.697 116.264Z" stroke="black" stroke-width="6" mask="url(#path-3-inside-1_292_585)"/>
<path d="M36.5092 42.7568C45.0518 43.7833 52.0978 49.4972 59.1398 53.952C66.6953 58.7316 74.4475 63.1905 82.304 67.4609C82.9861 67.8298 83.592 66.7913 82.9099 66.4224C74.608 61.9074 66.4185 57.1799 58.4536 52.0915C51.5922 47.7088 44.8311 42.5563 36.5092 41.5539C35.7428 41.4616 35.7468 42.6686 36.5092 42.7568Z" stroke="black" stroke-width="6" mask="url(#path-3-inside-1_292_585)"/>
<path d="M36.5253 43.0214C38.2145 46.1771 41.2921 47.8893 44.1972 49.7738C48.1655 52.3481 50.5329 56.0812 53.7028 59.4694C59.6734 65.845 67.6021 70.2116 72.6258 77.4933C73.0632 78.1268 74.1064 77.5254 73.665 76.8878C68.8179 69.8587 61.3707 65.5041 55.4362 59.5336C52.4669 56.5423 50.2721 52.7892 46.9056 50.2029C43.6836 47.7289 39.5707 46.1611 37.5645 42.416C37.1994 41.7303 36.1601 42.3398 36.5253 43.0214Z" stroke="black" stroke-width="6" mask="url(#path-3-inside-1_292_585)"/>
<path d="M223.528 162.015C218.24 164.854 211.394 163.928 207.205 159.557C203.586 155.78 201.78 150.88 196.64 148.751C187.781 145.086 172.866 150.908 167.249 140.803C166.872 140.126 165.832 140.731 166.21 141.409C172.284 152.339 187.44 145.755 196.725 150.094C202.374 152.732 203.975 159.525 209.204 162.705C213.726 165.455 219.5 165.544 224.138 163.053C224.82 162.685 224.21 161.646 223.528 162.015Z" stroke="black" stroke-width="6" mask="url(#path-3-inside-1_292_585)"/>
<path d="M189.655 193.7C177.352 182.068 165.05 170.439 152.744 158.807C152.182 158.274 151.327 159.124 151.893 159.657C164.195 171.289 176.498 182.918 188.804 194.55C189.366 195.083 190.216 194.233 189.655 193.7Z" stroke="black" stroke-width="6" mask="url(#path-3-inside-1_292_585)"/>
<path d="M160.708 224.166C157.892 223.344 154.858 222.426 152.732 220.293C150.601 218.16 149.975 215.208 150.003 212.289C150.055 206.968 152.218 201.728 151.131 196.391C150.031 191.014 145.14 188.752 141.785 184.939C137.861 180.48 135.935 174.586 136.236 168.683C136.276 167.909 135.072 167.913 135.032 168.683C134.743 174.313 136.413 179.939 139.831 184.442C141.581 186.747 143.8 188.435 145.942 190.34C148.639 192.734 150.119 195.436 150.22 199.093C150.376 204.799 147.852 210.425 149.168 216.131C150.448 221.684 155.384 223.865 160.383 225.321C161.134 225.546 161.451 224.383 160.708 224.166Z" stroke="black" stroke-width="6" mask="url(#path-3-inside-1_292_585)"/>
<path d="M112.964 226.38C114.408 208.769 114.28 191.07 112.586 173.483C112.514 172.721 111.306 172.713 111.383 173.483C113.08 191.07 113.204 208.769 111.76 226.38C111.696 227.149 112.899 227.145 112.964 226.38Z" stroke="black" stroke-width="6" mask="url(#path-3-inside-1_292_585)"/>
<path d="M70.4711 228.228C66.8277 216.459 78.1631 208.668 83.592 199.935C86.3967 195.424 85.8671 190.737 85.7226 185.66C85.5541 179.762 86.9505 174.02 89.7512 168.828C90.1203 168.146 89.0811 167.536 88.7119 168.222C86.172 172.929 84.6834 178.134 84.5149 183.491C84.4226 186.454 84.88 189.41 84.7235 192.369C84.551 195.637 83.3312 198.387 81.4092 200.994C75.4626 209.057 65.8366 217.342 69.3075 228.549C69.5402 229.287 70.7038 228.97 70.4711 228.228Z" stroke="black" stroke-width="6" mask="url(#path-3-inside-1_292_585)"/>
<path d="M39.4343 193.612C49.8668 180.604 60.9775 168.158 72.7221 156.317C73.2678 155.768 72.4171 154.914 71.8714 155.467C60.1268 167.308 49.0162 179.754 38.5837 192.762C38.1022 193.359 38.9488 194.213 39.4343 193.612Z" stroke="black" stroke-width="6" mask="url(#path-3-inside-1_292_585)"/>
<path d="M6.4194 168.447C7.00121 165.604 7.62315 162.504 9.84207 160.439C11.9406 158.49 14.9259 157.897 17.6665 157.496C22.9429 156.722 28.2394 156.145 33.2189 154.088C35.4017 153.185 37.4602 152.031 39.2858 150.523C41.2841 148.875 42.6524 146.826 44.1851 144.769C48.0813 139.544 54.08 138.582 60.191 137.968C60.9534 137.892 60.9614 136.689 60.191 136.766C54.9146 137.291 49.0643 137.964 45.0839 141.854C42.9774 143.911 41.6653 146.63 39.5467 148.682C37.2595 150.9 34.4026 152.432 31.4213 153.494C25.8761 155.471 20.0499 155.467 14.4083 156.886C12.0409 157.48 9.7578 158.538 8.1849 160.459C6.41538 162.624 5.8095 165.455 5.2638 168.122C5.1033 168.88 6.26692 169.204 6.4194 168.447Z" stroke="black" stroke-width="6" mask="url(#path-3-inside-1_292_585)"/>
<path d="M5.65301 121.083C23.1716 120.241 40.6902 119.395 58.2089 118.553C58.9793 118.517 58.9833 117.314 58.2089 117.35C40.6902 118.192 23.1716 119.038 5.65301 119.88C4.88261 119.917 4.8786 121.119 5.65301 121.083Z" stroke="black" stroke-width="6" mask="url(#path-3-inside-1_292_585)"/>
<path d="M3.34982 76.551C7.45462 72.5693 14.4404 71.8877 19.7048 73.7121C23.0793 74.8829 24.5359 77.2607 25.7557 80.4525C26.5542 82.5416 27.5011 84.4141 29.2706 85.8536C33.2189 89.0574 38.5074 89.1777 43.3425 89.0133C49.1486 88.8168 56.3992 88.4961 60.0185 94.0215C60.4398 94.6671 61.4831 94.0656 61.0577 93.416C58.0082 88.7567 52.3426 87.6781 47.1303 87.7021C40.8186 87.7302 31.7945 89.1216 27.9906 82.5456C26.5702 80.0916 26.2291 77.1605 24.1908 75.0634C22.4173 73.2429 19.9014 72.3287 17.4418 71.9237C12.2375 71.0657 6.39533 71.9157 2.49517 75.7049C1.94144 76.2422 2.7961 77.0923 3.34982 76.551Z" stroke="black" stroke-width="6" mask="url(#path-3-inside-1_292_585)"/>
</svg>
