<svg width="960" height="961" viewBox="0 0 960 961" fill="none" xmlns="http://www.w3.org/2000/svg">
<path d="M526.185 240.168C471.784 227.846 412.112 238.951 362.12 262.481C336.761 274.414 320.035 293.971 302.566 315.236C285.637 335.841 269.047 357.189 257.474 381.361C234.818 428.724 235.663 487.124 247.861 537.344C260.329 588.712 288.763 631.68 330.594 663.847C371.226 695.084 418.65 714.151 470.01 716.619C517.214 718.884 565.246 707.745 606.182 683.979C686.854 637.174 732.572 541.028 722.519 448.821C712.602 357.967 646.324 278.725 560.634 248.705C549.872 244.935 538.856 242.045 527.655 239.898C524.462 239.289 523.11 244.174 526.303 244.783C612.872 261.382 687.226 328.961 710.794 414.187C734.633 500.326 704.02 598.432 636.288 656.477C565.482 717.177 457.575 729.195 374.926 686.311C328.026 661.988 287.513 624.479 266.022 575.68C245.816 529.754 239.582 474.785 248.503 425.411C253.301 398.906 264.891 374.971 280.045 352.879C294.507 331.818 310.98 311.027 328.601 292.501C347.81 272.301 373.271 261.923 399.39 253.657C426.303 245.155 454.399 239.813 482.698 240.084C496.906 240.219 510.98 241.893 524.834 245.02C528.01 245.78 529.361 240.895 526.185 240.168Z" fill="#B96800"/>
<path d="M475.332 14.0882C461.444 88.9524 447.574 163.834 433.686 238.698C433.095 241.893 437.977 243.262 438.569 240.05C452.456 165.186 466.327 90.3047 480.214 15.4404C480.823 12.2457 475.94 10.8765 475.332 14.0882Z" fill="#B96800"/>
<path d="M474.96 0.852953C500.556 80.3487 522.671 160.926 541.272 242.349C541.931 245.239 546.121 244.445 546.256 241.673C546.831 229.35 565.719 225.006 573.22 217.096C580.688 209.219 584.253 198.587 585.705 188.005C589.743 158.898 575.129 126.9 592.058 100.176C607.398 75.9708 636.745 66.4712 657.086 47.5058C673.998 31.7351 685.233 5.01114 670.365 -15.8981C668.828 -18.0617 664.655 -16.8447 665.736 -13.9373C673.761 7.80017 696.653 21.8974 701.536 44.8182C708.108 75.6834 676.43 98.0463 660.009 119.463C652.727 128.945 646.763 139.577 645.327 151.613C643.722 165.068 647.963 178.353 648.672 191.741C650.26 221.727 640.58 251.561 622.08 275.158C620.103 277.677 623.195 281.007 625.662 278.741C681.786 227.187 755.937 199.398 808.362 143.33C806.926 142.738 805.473 142.13 804.037 141.538C804.121 151.849 798.09 160.166 792.734 168.482C787.294 176.95 781.854 185.419 776.414 193.887C765.838 210.351 755.244 226.815 744.668 243.279C723.499 276.206 702.347 309.117 681.178 342.044C679.404 344.799 683.796 347.335 685.554 344.596C707.922 309.793 730.291 274.989 752.677 240.185C763.557 223.248 774.437 206.328 785.334 189.391C794.373 175.328 809.257 159.185 809.122 141.555C809.105 139.425 806.317 138.124 804.797 139.763C752.406 195.798 678.221 223.603 622.097 275.175C623.296 276.375 624.479 277.558 625.678 278.758C642.742 257.004 652.812 230.55 653.842 202.846C654.4 187.802 650.125 173.451 650.041 158.543C649.956 141.217 659.586 127.187 670.568 114.628C687.192 95.6292 711.031 74.5002 706.942 46.4071C703.327 21.6608 678.998 7.36068 670.635 -15.2727C669.098 -14.6135 667.544 -13.9712 666.006 -13.3119C686.939 16.1334 654.89 45.0379 632.301 59.8113C612.365 72.8437 589.743 86.1634 581.786 110.115C572.916 136.856 585.621 164.966 579.911 192.096C576.954 206.108 569.655 215.067 557.559 222.2C549.686 226.849 541.661 231.7 541.188 241.707C542.843 241.487 544.499 241.25 546.172 241.03C527.57 159.608 505.438 79.0471 479.86 -0.465508C478.846 -3.5926 473.963 -2.27414 474.96 0.852953Z" fill="#B96800"/>
<path d="M935.985 258.424C925.933 279.823 900.185 282.646 879.269 281.7C855.464 280.618 834.008 279.164 812.011 289.948C773.491 308.829 735.207 358.829 687.294 340.421C684.253 339.255 682.935 344.157 685.942 345.306C734.65 364.035 773.44 315.624 812.18 295.526C825.189 288.782 838.637 285.486 853.319 285.486C867.054 285.486 880.79 287.717 894.542 286.821C912.754 285.621 932.15 278.471 940.361 260.976C941.729 258.035 937.37 255.466 935.985 258.424Z" fill="#B96800"/>
<path d="M931.981 264.053C927.943 276.629 927.909 290.084 923.854 302.626C919.428 316.334 909.223 324.972 895.877 329.519C873.052 337.294 847.828 333.018 825.392 342.365C802.736 351.814 797.144 373.349 785.892 392.94C772.511 416.232 746.392 429.079 719.816 426.323C716.572 425.985 716.606 431.056 719.816 431.394C743.401 433.845 767.544 424.447 782.868 406.209C791.18 396.303 795.589 384.201 801.486 372.859C808.7 358.947 818.651 349.211 833.94 344.749C858.066 337.7 884.844 342.382 907.551 329.992C932.657 316.3 929.261 289.154 936.88 265.422C937.86 262.295 932.978 260.959 931.981 264.053Z" fill="#B96800"/>
<path d="M920.611 277.237C915.491 297.267 894.795 306.581 876.042 309.827C854.096 313.613 831.119 310.486 810.017 318.904C792.227 326.003 780.215 340.979 768.372 355.33C753.792 372.994 734.109 393.886 708.784 388.697C705.608 388.038 704.239 392.923 707.432 393.582C758.353 404.028 774.876 334.877 816.775 321.878C850.7 311.348 913.481 325.631 925.493 278.589C926.304 275.412 921.422 274.059 920.611 277.237Z" fill="#B96800"/>
<path d="M254.483 23.8413C277.663 33.3071 300.792 46.7451 297.886 75.4299C295.369 100.278 286.212 123.181 289.32 148.638C292.159 171.879 305.083 187.583 322.198 202.44C339.413 217.383 365.229 241.504 350.091 266.487C348.401 269.293 352.777 271.828 354.467 269.039C366.715 248.823 354.078 225.344 339.008 210.655C329.293 201.19 318.058 193.279 309.222 182.9C299.255 171.203 294.524 156.785 293.797 141.538C293.122 127.424 295.352 113.344 298.275 99.5845C301.045 86.6198 305.202 73.0634 302.329 59.7099C297.548 37.516 274.858 26.7148 255.835 18.9394C252.811 17.7223 251.493 22.6243 254.483 23.8413Z" fill="#B96800"/>
<path d="M261.292 24.5174C287.901 14.7136 316.065 28.5066 330.932 51.2921C345.445 73.5367 345.158 98.0125 348.773 123.249C350.226 133.34 352.845 143.347 358.961 151.68C365.11 160.064 373.93 165.507 383.002 170.24C394.541 176.257 406.03 181.666 415.727 190.608C425.408 199.533 432.791 210.284 438.079 222.319C439.38 225.294 443.756 222.724 442.455 219.766C431.811 195.51 413.396 179.959 390.216 168.228C377.562 161.839 365.043 155.01 358.842 141.538C352.862 128.557 352.946 113.682 351.578 99.7197C349.229 75.6496 341.339 51.0892 323.228 34.1522C306.452 18.483 281.853 11.5527 259.957 19.6324C256.916 20.748 258.217 25.6499 261.292 24.5174Z" fill="#B96800"/>
<path d="M264.063 28.5235C275.585 34.5917 287.107 40.66 298.613 46.7451C310.405 52.9824 320.931 59.1183 321.218 74.0438C321.421 84.9295 317.721 95.5615 317.298 106.43C316.876 117.181 318.498 128.066 321.961 138.259C328.905 158.746 342.978 173.367 359.163 187.059C377.072 202.204 397.582 219.141 398.731 244.496C398.883 247.741 403.952 247.758 403.799 244.496C402.803 222.437 388.239 205.517 372.358 191.639C352.389 174.178 332.503 158.492 325.256 131.65C321.708 118.516 321.826 105.534 324.124 92.2147C325.83 82.3602 328.06 71.7111 324.141 62.1101C320.643 53.5233 313.007 48.7059 305.151 44.4801C292.362 37.6174 279.488 30.9406 266.648 24.1624C263.742 22.6243 261.174 27.0022 264.063 28.5235Z" fill="#B96800"/>
<path d="M143.197 157.224C186.009 222.166 228.82 287.092 271.615 352.034C273.152 354.366 277.072 352.947 276.244 350.073C271.108 332.122 254.686 322.402 237.285 318.667C212.399 313.342 187.715 321.54 162.711 320.543C135.95 319.461 119.798 302.879 101.383 285.807C87.6813 273.096 71.5468 261.095 51.763 264.019C27.7724 267.552 11.6379 289.898 0.369098 309.404C-1.11764 311.973 2.2275 314.34 4.35624 312.48C23.3629 295.848 54.3817 295.746 72.8308 313.461C90.0296 329.958 93.8817 355.499 109.391 373.298C125.492 391.773 150.445 394.326 173.388 396.067C197.379 397.875 227.097 400.935 239.531 424.92C240.038 423.686 240.545 422.436 241.052 421.202C167.019 443.024 92.9693 464.863 18.9364 486.685C16.7401 487.327 16.3177 491.198 18.9364 491.57C96.3145 502.743 173.338 516.215 249.905 531.968C250.125 530.312 250.361 528.655 250.581 526.982C227.671 524.599 204.542 530.143 184.995 542.296C175.298 548.331 166.563 555.954 159.383 564.828C151.949 574.04 147.337 584.639 141.339 594.747C133.077 608.709 121.471 615.233 105.455 616.552C93.5775 617.532 81.5147 616.383 69.739 618.648C50.8338 622.282 34.6993 635.044 24.5962 651.17C12.8543 669.915 9.18812 693.377 17.1625 714.252C18.0579 716.585 21.2172 716.72 22.0451 714.252C31.371 686.734 59.3318 667.988 88.3908 670.574C104.356 671.994 119.815 678.57 136.034 677.268C146.205 676.44 155.21 672.231 162.897 665.639C179.048 651.778 187.293 630.92 203.546 617.177C214.308 608.083 226.523 606.883 240.123 606.342C251.257 605.886 261.883 604.906 270.635 597.35C269.3 596.319 267.982 595.305 266.648 594.273C232.824 665.808 196.585 736.159 157.98 805.225C156.511 807.845 159.805 810.093 161.968 808.302C220.829 759.096 281.954 712.68 345.141 669.172C343.992 668.022 342.826 666.856 341.677 665.706C328.381 683.776 313.835 704.313 314.747 727.842C315.237 740.385 320.373 751.879 323.668 763.813C326.962 775.763 327.097 787.291 322.958 799.005C309.645 836.615 269.097 861.006 271.378 904.498C272.544 926.793 283.711 947.432 301.704 960.549C304.086 962.29 306.722 958.571 304.779 956.56C294.659 946.113 296.585 930.005 303.749 918.426C310.979 906.746 322.738 898.717 333.162 890.181C352.237 874.596 367.797 855.174 378.373 832.896C388.256 812.071 391.669 790.232 395.926 767.835C399.947 746.656 405.928 723.16 427.08 713.12C425.847 712.613 424.597 712.106 423.364 711.599C447.692 789.827 465.955 869.829 477.984 950.88C478.373 953.483 482.225 953.094 482.867 950.88C505.59 872.078 523.634 792.007 536.88 711.075C537.403 707.931 532.757 706.494 531.997 709.722C527.283 729.516 522.35 753.366 534.835 771.419C546.358 788.086 567.493 791.804 584.1 801.321C624.783 824.647 603.158 881.324 630.071 914.217C644.212 931.509 666.817 940.704 688.949 938.101C691.281 937.831 692.599 934.755 690.233 933.369C647.912 908.825 675.636 845.675 664.874 807.947C658.049 784.029 635.967 774.107 622.249 755.057C607.584 734.705 602.043 708.793 606.875 684.215C605.641 684.722 604.391 685.23 603.158 685.737C667.899 732.643 735.461 775.526 805.473 814.15C807.753 815.401 810.085 812.916 808.936 810.685C772.764 740.368 732.116 672.434 687.277 607.306C686.027 605.48 682.192 605.852 682.546 608.59C684.962 626.609 697.397 640.943 713.869 648.093C736.136 657.745 760.82 652.167 782.394 643.58C788.544 641.129 795.032 638.391 801.773 638.408C809.122 638.425 815.289 642.059 820.999 646.302C830.663 653.502 839.718 661.464 849.551 668.462C866.598 680.598 885.993 690.909 907.314 691.687C927.639 692.413 948.166 684.824 959.587 667.346C960.938 665.284 958.708 663.34 956.732 663.627C933.755 666.957 906.182 661.65 894.491 639.337C888.882 628.655 886.534 617.346 878.086 608.269C871.278 600.933 862.493 595.761 853.285 592.008C829.43 582.289 802.989 583.489 778.745 575.207C753.521 566.586 735.731 546.353 718.853 526.728C718.482 528.148 718.11 529.551 717.738 530.971C790.538 511.532 863.861 494.173 937.641 478.909C940.09 478.402 940.023 474.565 937.641 474.024C869.825 458.355 802.009 442.686 734.194 427.016C731.017 426.29 729.666 431.175 732.842 431.901C800.658 447.571 868.473 463.24 936.289 478.909C936.289 477.286 936.289 475.647 936.289 474.024C862.509 489.288 789.186 506.647 716.386 526.086C714.444 526.61 714.055 528.926 715.271 530.329C731.389 549.074 748.419 568.479 771.852 578.046C798.073 588.746 827.672 586.211 853.673 597.654C865.618 602.911 876.127 611.024 882.04 622.874C887.852 634.52 890.436 646.471 900.641 655.362C916.184 668.901 938.401 671.369 958.066 668.512C957.12 667.278 956.157 666.028 955.211 664.794C941.56 685.686 913.616 690.368 890.893 684.063C864.554 676.744 844.956 657.745 823.567 641.94C814.494 635.23 805.152 631.765 793.849 634.317C780.046 637.444 767.764 644.645 753.606 646.978C726.202 651.491 691.822 639.946 687.615 608.607C686.044 609.03 684.472 609.453 682.884 609.892C727.74 675.02 768.372 742.954 804.543 813.271C805.692 812.122 806.858 810.956 808.007 809.806C737.995 771.199 670.433 728.316 605.692 681.393C604.425 680.463 602.262 681.393 601.975 682.914C597.549 705.48 601.113 728.941 612.399 749.056C625.695 772.754 653.943 784.401 660.651 811.851C670.213 851.016 643.604 912.223 687.682 937.78C688.105 936.208 688.527 934.636 688.966 933.047C661.005 936.343 633.484 919.947 624.107 893.173C616.234 870.674 619.123 845.725 610.102 823.548C601.063 801.338 581.093 794.593 560.971 785.111C548.267 779.127 537.572 770.946 533.686 756.832C529.598 741.94 533.416 725.696 536.896 711.091C535.275 710.635 533.636 710.195 532.014 709.739C518.768 790.672 500.742 870.759 478.001 949.545C479.623 949.545 481.262 949.545 482.884 949.545C470.855 868.494 452.592 788.491 428.263 710.263C427.739 708.607 426.033 708.032 424.546 708.742C404.475 718.275 396.805 739.37 392.412 759.806C386.617 786.716 383.644 812.866 370.365 837.578C363.218 850.881 354.23 863.169 343.637 873.937C333.466 884.282 321.336 892.243 310.878 902.216C295.622 916.736 284.015 942.395 301.214 960.16C302.245 958.825 303.259 957.506 304.289 956.171C281.836 939.809 270.99 909.586 278.981 882.76C286.06 858.978 304.728 840.891 317.754 820.404C323.465 811.412 328.415 801.676 330.392 791.128C332.706 778.839 330.189 767.193 326.438 755.462C321.353 739.573 317.4 725.003 322.688 708.522C327.452 693.647 336.93 680.716 346.087 668.276C347.59 666.23 344.651 663.407 342.623 664.81C279.082 708.556 217.619 755.243 158.42 804.735C159.754 805.766 161.072 806.78 162.407 807.812C201.011 738.745 237.251 668.394 271.074 596.86C272.307 594.257 269.334 591.856 267.087 593.783C251.425 607.289 226.928 597.688 209.02 607.323C194.693 615.047 185.603 629.652 176.311 642.448C163.927 659.503 150.124 673.888 127.266 672.18C103.985 670.456 83.39 660.787 60.1934 669.239C40.038 676.575 24.0893 692.582 17.1963 712.934C18.8182 712.934 20.4569 712.934 22.0788 712.934C6.85665 673.11 36.5746 625.849 79.048 622.586C99.3555 621.031 122.653 624.733 137.977 608.1C145.123 600.342 149.229 590.504 154.331 581.41C159.94 571.403 167.239 562.495 176.007 555.092C196.653 537.665 223.752 529.264 250.598 532.053C253.436 532.34 254.061 527.641 251.273 527.066C174.706 511.313 97.683 497.841 20.3049 486.668C20.3049 488.29 20.3049 489.93 20.3049 491.553C94.3378 469.731 168.388 447.892 242.421 426.07C244.042 425.596 244.701 423.805 243.941 422.351C223.515 382.933 170.347 396.962 135.882 384.86C93.8986 370.12 98.8318 311.652 56.1556 297.808C37.149 291.639 15.8616 295.712 0.808327 308.88C2.14301 309.911 3.46083 310.925 4.79552 311.956C18.0072 289.12 40.359 260.537 70.4486 270.712C92.5132 278.167 106.434 300.259 124.968 313.275C149.753 330.685 178.322 324.786 206.468 322.335C230.155 320.273 263.691 324.414 271.412 351.425C272.949 350.766 274.504 350.124 276.041 349.464C233.23 284.522 190.418 219.597 147.624 154.655C145.799 151.951 141.407 154.486 143.197 157.224Z" fill="#B96800"/>
<path d="M478.508 16.1672C499.069 87.0254 479.961 161.4 490.571 233.458C491.044 236.669 495.927 235.3 495.454 232.106C484.827 160.013 503.985 85.7746 483.391 14.815C482.478 11.6879 477.596 13.0233 478.508 16.1672Z" fill="#B96800"/>
<path d="M671.582 1.69812C676.363 16.5222 680.84 32.4281 677.123 48.0298C674.504 58.9662 667.831 68.2629 660.313 76.3764C646.543 91.2512 629.243 103.303 618.904 121.102C605.861 143.55 609.949 169.733 610.287 194.445C610.591 216.893 605.591 244.208 582.918 254.469C579.944 255.821 582.529 260.182 585.469 258.846C605.692 249.685 613.328 227.237 615.018 206.531C617.332 178.083 608.243 147.657 624.411 121.778C636.356 102.661 656.258 90.423 670.01 72.8099C687.412 50.5145 684.759 26.0049 676.481 0.345856C675.467 -2.74743 670.585 -1.42898 671.582 1.69812Z" fill="#B96800"/>
<path d="M798.14 152.221C743.874 197.2 695.961 249.6 646.746 299.921C644.465 302.254 648.047 305.837 650.328 303.505C699.526 253.201 747.456 200.784 801.722 155.805C804.239 153.725 800.641 150.159 798.14 152.221Z" fill="#B96800"/>
<path d="M920.83 473.111C854.941 475.833 789.051 478.554 723.144 481.276C719.901 481.411 719.884 486.482 723.144 486.347C789.034 483.625 854.924 480.904 920.83 478.182C924.091 478.047 924.108 472.976 920.83 473.111Z" fill="#B96800"/>
<path d="M153.723 163.242C189.692 167.569 219.359 191.656 249.01 210.436C280.822 230.584 313.463 249.381 346.543 267.383C349.415 268.938 351.966 264.56 349.094 263.005C314.139 243.972 279.657 224.043 246.121 202.593C217.23 184.117 188.763 162.397 153.723 158.171C150.496 157.782 150.513 162.87 153.723 163.242Z" fill="#B96800"/>
<path d="M153.791 164.358C160.903 177.66 173.862 184.878 186.093 192.823C202.802 203.674 212.77 219.411 226.117 233.694C251.256 260.571 284.641 278.978 305.793 309.674C307.634 312.345 312.027 309.81 310.169 307.122C289.76 277.491 258.403 259.134 233.416 233.965C220.913 221.355 211.672 205.534 197.497 194.631C183.931 184.202 166.614 177.593 158.166 161.805C156.629 158.915 152.253 161.484 153.791 164.358Z" fill="#B96800"/>
<path d="M941.172 665.977C918.904 677.944 890.082 674.04 872.444 655.615C857.204 639.692 849.602 619.037 827.96 610.061C790.656 594.612 727.858 619.155 704.205 576.559C702.617 573.702 698.242 576.255 699.83 579.111C725.408 625.189 789.22 597.434 828.314 615.724C852.102 626.846 858.843 655.48 880.857 668.884C899.898 680.48 924.209 680.852 943.74 670.355C946.612 668.8 944.044 664.422 941.172 665.977Z" fill="#B96800"/>
<path d="M798.546 799.546C746.746 750.51 694.947 701.49 643.131 652.454C640.766 650.206 637.167 653.79 639.549 656.038C691.348 705.074 743.148 754.093 794.964 803.129C797.329 805.377 800.911 801.794 798.546 799.546Z" fill="#B96800"/>
<path d="M676.667 927.977C664.807 924.511 652.034 920.64 643.08 911.648C634.109 902.655 631.473 890.215 631.592 877.909C631.811 855.479 640.918 833.386 636.339 810.888C631.71 788.221 611.115 778.687 596.991 762.612C580.468 743.816 572.359 718.968 573.626 694.087C573.795 690.825 568.726 690.842 568.557 694.087C567.341 717.819 574.369 741.534 588.763 760.516C596.13 770.236 605.472 777.352 614.494 785.381C625.847 795.472 632.082 806.865 632.504 822.281C633.163 846.334 622.536 870.049 628.078 894.102C633.467 917.513 654.247 926.709 675.298 932.845C678.458 933.791 679.792 928.889 676.667 927.977Z" fill="#B96800"/>
<path d="M475.636 937.307C481.718 863.068 481.177 788.457 474.048 714.32C473.744 711.108 468.658 711.075 468.979 714.32C476.126 788.457 476.65 863.068 470.568 937.307C470.297 940.552 475.366 940.535 475.636 937.307Z" fill="#B96800"/>
<path d="M296.72 945.099C281.38 895.489 329.108 862.646 351.966 825.83C363.776 806.814 361.546 787.054 360.937 765.655C360.228 740.79 366.107 716.585 377.9 694.695C379.454 691.822 375.078 689.253 373.524 692.143C362.83 711.987 356.562 733.928 355.852 756.51C355.464 769.002 357.389 781.459 356.731 793.934C356.004 807.71 350.868 819.306 342.776 830.293C317.737 864.285 277.207 899.207 291.821 946.452C292.801 949.562 297.7 948.227 296.72 945.099Z" fill="#B96800"/>
<path d="M166.039 799.174C209.966 744.34 256.747 691.873 306.198 641.957C308.496 639.642 304.914 636.041 302.617 638.374C253.166 688.289 206.384 740.757 162.458 795.591C160.43 798.109 163.995 801.71 166.039 799.174Z" fill="#B96800"/>
<path d="M27.0291 693.09C29.4788 681.105 32.0975 668.039 41.4403 659.334C50.2763 651.119 62.846 648.617 74.3851 646.927C96.6017 643.665 118.903 641.231 139.869 632.559C149.06 628.756 157.727 623.888 165.414 617.532C173.828 610.585 179.589 601.948 186.043 593.276C202.447 571.251 227.705 567.195 253.436 564.608C256.646 564.287 256.68 559.216 253.436 559.537C231.219 561.752 206.587 564.591 189.827 580.988C180.957 589.659 175.433 601.119 166.512 609.774C156.882 619.121 144.853 625.578 132.3 630.057C108.952 638.391 84.4206 638.374 60.6665 644.358C50.6986 646.859 41.0855 651.322 34.4627 659.418C27.0121 668.546 24.461 680.48 22.1633 691.72C21.4876 694.915 26.3871 696.284 27.0291 693.09Z" fill="#B96800"/>
<path d="M23.8021 493.429C97.5647 489.879 171.327 486.313 245.09 482.763C248.334 482.611 248.351 477.54 245.09 477.692C171.327 481.242 97.5647 484.808 23.8021 488.358C20.5583 488.51 20.5415 493.581 23.8021 493.429Z" fill="#B96800"/>
<path d="M14.1045 305.702C31.3879 288.917 60.8017 286.044 82.9676 293.735C97.1761 298.67 103.309 308.694 108.445 322.149C111.807 330.955 115.794 338.849 123.245 344.917C139.869 358.423 162.137 358.93 182.495 358.237C206.941 357.409 237.47 356.057 252.709 379.349C254.483 382.071 258.876 379.535 257.085 376.797C244.245 357.155 220.39 352.608 198.443 352.71C171.868 352.828 133.872 358.694 117.855 330.972C111.875 320.628 110.439 308.271 101.856 299.431C94.3885 291.757 83.7955 287.903 73.439 286.196C51.5265 282.579 26.9277 286.162 10.506 302.135C8.1745 304.401 11.773 307.984 14.1045 305.702Z" fill="#B96800"/>
</svg>
