<svg width="513" height="530" viewBox="0 0 513 530" fill="none" xmlns="http://www.w3.org/2000/svg">
<path d="M296.239 141.057C306.906 133.034 313.727 120.736 314.189 107.296C314.471 99.173 311.514 91.4497 311.287 83.3906C311.042 74.8506 315.232 67.8261 321.183 62.0087C331.541 51.8713 345.826 46.2536 354.389 34.1832C361.201 24.5813 362.806 10.3781 354.153 1.40237C352.874 2.68202 351.586 3.97075 350.307 5.25039C361.228 15.4876 374.316 31.1066 367.178 47.0432C362.216 58.1153 351.078 64.9219 344.929 75.2408C336.702 89.0356 343.296 102.476 345.373 116.879C347.586 132.208 340.956 148.108 328.675 157.474C330.008 158.5 331.341 159.525 332.675 160.551C334.198 156.267 338.334 154.035 342.135 152.038C346.607 149.696 351.114 147.418 355.55 144.995C364.384 140.176 373.064 135.076 381.572 129.694C398.325 119.103 414.371 107.414 429.681 94.8258C428.257 93.7277 426.833 92.6295 425.409 91.5223C405.173 125.483 384.947 159.434 364.711 193.395C362.915 196.408 367.613 199.158 369.409 196.145C389.645 162.184 409.872 128.233 430.107 94.2722C431.776 91.4678 428.112 89.0991 425.835 90.9687C409.201 104.646 391.65 117.179 373.282 128.432C364.466 133.832 355.477 138.942 346.325 143.743C339.051 147.555 330.398 150.713 327.423 159.08C326.67 161.195 329.536 163.591 331.423 162.157C340.602 155.151 347.205 145.376 349.89 134.096C351.223 128.505 351.577 122.715 350.833 117.006C349.872 109.619 347.26 102.558 346.325 95.1707C344.629 81.8206 352.484 73.462 360.947 64.4137C368.012 56.8629 374.634 48.4953 374.634 37.6319C374.634 23.1201 364.157 10.7502 354.153 1.36607C351.595 -1.02987 347.867 2.68202 350.307 5.21409C360.23 15.5148 352.003 30.5257 343.232 38.2944C333.4 47.0069 321.074 52.552 312.865 63.1068C309.373 67.5902 306.824 72.736 306.09 78.4082C305.137 85.8047 307.359 92.9562 308.339 100.226C310.207 114.002 304.666 127.915 293.491 136.319C290.734 138.434 293.437 143.171 296.239 141.057Z" fill="black" fill-opacity="0.45"/>
<path d="M370.162 201.608C380.956 207.807 393.491 202.552 402.035 194.892C407.259 190.209 411.559 184.61 416.711 179.854C421.989 174.981 428.057 171.777 435.023 170.044C448.348 166.722 462.198 168.437 475.749 167.484C486.343 166.74 498.125 163.636 503.35 153.454C501.69 153.236 500.03 153.018 498.379 152.8C500.892 165.814 493.1 179.918 480.828 184.918C467.876 190.191 452.457 183.221 440.511 192.115C430.125 199.848 428.565 213.987 420.556 223.58C411.323 234.625 396.974 240.243 382.733 238.773C379.25 238.41 379.278 243.864 382.733 244.218C394.071 245.389 405.636 242.366 415.014 235.877C424.602 229.243 429.563 220.277 434.37 209.967C436.765 204.83 439.459 199.385 444.275 196.099C450.017 192.188 457.309 192.442 463.949 192.46C475.114 192.487 485.246 190.981 493.554 182.858C501.908 174.681 505.862 162.847 503.64 151.357C503.205 149.079 499.704 148.689 498.67 150.704C493.155 161.458 479.268 162.093 468.656 162.293C456.964 162.511 445.037 161.939 433.59 164.789C421.826 167.72 413.627 174.836 405.572 183.539C397.745 191.997 385.373 204.059 372.919 196.907C369.872 195.165 367.123 199.866 370.162 201.608Z" fill="black" fill-opacity="0.45"/>
<path d="M383.604 245.225C421.137 253.784 458.679 262.333 496.212 270.891C496.212 269.139 496.212 267.388 496.212 265.636C456.656 275.819 417.101 286.002 377.545 296.194C378.026 297.945 378.507 299.697 378.996 301.448C386.67 299.08 390.634 308.545 393.89 313.655C396.602 317.902 400.049 321.305 404.693 323.366C413.89 327.441 424.429 326.034 434.189 326.633C439.795 326.978 445.327 328.012 450.144 331.034C455.187 334.202 458.951 339.003 462.198 343.913C468.212 353.006 472.747 363.153 481.237 370.304C489.735 377.465 501.382 381.984 511.64 375.704C514.18 374.152 512.556 369.687 509.545 370.731C497.345 374.942 481.11 389.354 467.731 381.231C461.527 377.456 460.248 368.988 455.686 363.697C451.758 359.141 446.253 356.119 440.52 354.477C424.801 349.975 410.053 356.7 394.733 359.296C386.198 360.739 378.833 358.824 372.938 352.353C368.402 347.379 365.418 341.135 362.588 335.091C361.019 336.008 359.459 336.924 357.89 337.841C381.926 375.069 405.962 412.297 429.999 449.524C431.241 448.281 432.484 447.038 433.717 445.803C414.47 433.833 395.214 421.862 375.967 409.883C366.47 403.974 356.974 398.066 347.477 392.167C338.851 386.804 329.709 381.585 323.604 373.217C322.035 374.134 320.475 375.051 318.906 375.967C325.173 384.253 320.085 391.686 319.613 400.698C319.314 406.425 321.79 411.416 325.663 415.5C329.817 419.875 335.096 422.988 339.468 427.126C344.91 432.281 348.085 439.015 349.872 446.221C353.817 462.176 350.733 478.757 352.774 494.92C354.108 505.52 359.377 521.657 372.974 520.368C372.729 518.589 372.493 516.801 372.248 515.022C356.711 519.678 339.749 513.008 332.43 498.333C328.529 490.519 328.502 482.641 329.963 474.219C331.114 467.585 331.595 461.168 328.203 455.079C320.82 441.828 304.729 439.596 293.736 430.693C282.661 421.717 279.976 405.154 286.969 392.893C285.282 392.439 283.586 391.977 281.899 391.523C280.393 413.068 273.89 434.023 268.53 454.834C263.06 476.079 257.591 497.334 252.112 518.58C253.89 518.825 255.677 519.061 257.455 519.306C256.375 496.88 250.443 475.807 243.477 454.598C236.62 433.697 229.672 412.496 230.226 390.225C230.28 388.119 227.886 386.894 226.135 387.874C214.063 394.627 207.242 406.497 206.171 420.129C205.518 428.415 206.688 436.864 205.137 445.077C203.813 452.102 200.267 458.282 195.605 463.637C179.55 482.033 145.618 498.296 153.691 528.037C155.351 527.338 157.011 526.639 158.661 525.94C151.632 513.171 145.664 497.516 148.521 482.714C149.963 475.217 153.881 469.246 159.541 464.236C164.521 459.825 170.099 456.032 173.827 450.405C182.688 437.018 175.759 420.819 172.394 406.879C169.881 396.478 169.927 379.207 182.625 375.586C181.927 373.925 181.228 372.265 180.53 370.613C147.632 394.636 114.743 418.649 81.8451 442.672C83.0877 443.916 84.3304 445.159 85.5639 446.393C104.475 407.387 124.267 368.825 144.947 330.735C146.389 328.076 142.879 325.144 140.675 327.431C132.149 336.289 118.181 335.255 107.596 340.255C101.673 343.059 97.9811 347.615 94.6433 353.097C90.5889 359.768 86.1172 365.213 78.988 368.743C63.6501 376.339 48.2669 367.491 32.4393 369.306C21.8271 370.522 11.1513 376.92 10.072 388.374C11.7591 387.92 13.4552 387.457 15.1423 387.003C9.43706 377.946 9.92686 366.111 15.6865 357.163C23.0516 345.71 36.657 344.412 49.1377 344.63C55.1785 344.738 62.081 345.828 68.0401 344.493C73.4188 343.286 75.3417 338.885 76.4392 333.966C78.8882 322.984 85.0923 313.764 94.5254 307.529C104.748 300.768 117.31 298.136 129.21 301.475C129.691 299.724 130.172 297.972 130.661 296.221C90.099 288.488 49.5459 280.747 8.98357 273.015C9.52779 274.349 10.072 275.683 10.6071 277.017C12.7024 272.996 17.7182 272.216 21.7273 271.127C26.9699 269.711 32.2125 268.286 37.4552 266.871C47.6501 264.112 57.8451 261.353 68.0401 258.594C88.4301 253.076 108.82 247.558 129.219 242.031C132.593 241.114 131.16 235.859 127.768 236.776C105.627 242.766 83.4868 248.765 61.3463 254.755C50.5708 257.668 39.7862 260.59 29.0107 263.503C21.5096 265.536 9.95407 266.498 5.89965 274.258C5.14682 275.701 5.70918 277.915 7.52324 278.26C48.0855 285.993 88.6387 293.734 129.201 301.466C132.602 302.111 134.063 297.174 130.652 296.212C108.748 290.068 83.7317 302.065 74.3168 322.748C73.1558 325.308 72.2306 327.949 71.5866 330.69C70.4347 335.572 70.2896 338.776 64.3032 339.393C56.8293 340.164 49.1105 338.876 41.6003 339.23C29.2284 339.801 17.428 343.904 10.6978 354.885C4.26701 365.385 3.84072 379.244 10.453 389.735C11.9677 392.14 15.2783 390.987 15.5232 388.365C16.14 381.748 21.9813 377.655 27.8679 375.795C35.1694 373.49 42.7159 374.896 50.09 376.085C63.4778 378.236 76.2306 378.282 87.5503 369.823C92.6297 366.021 96.0854 361.201 99.3417 355.838C103.07 349.712 107.178 345.782 114.063 343.513C124.548 340.046 136.412 339.692 144.521 331.27C143.097 330.172 141.673 329.074 140.249 327.967C119.577 366.057 99.7771 404.628 80.8655 443.625C79.8043 445.813 82.1807 449.107 84.5843 447.346C117.482 423.323 150.371 399.31 183.269 375.287C185.618 373.571 184.339 369.406 181.174 370.313C171.904 372.963 167.314 381.404 166.081 390.488C164.439 402.54 169.029 413.304 171.505 424.866C173.047 432.054 173.691 439.913 169.827 446.52C166.571 452.084 160.974 455.787 156.203 459.934C147.287 467.666 142.534 477.84 142.425 489.684C142.299 503.397 147.441 516.828 153.963 528.681C155.459 531.404 159.741 529.552 158.933 526.585C155.106 512.472 164.548 499.458 174.271 490.21C183.369 481.561 194.026 474.627 201.8 464.617C210.162 453.853 211.405 442.228 211.387 428.977C211.378 421.563 211.568 413.985 214.879 407.178C217.936 400.898 222.815 395.961 228.883 392.566C227.523 391.786 226.153 390.996 224.793 390.216C224.248 411.852 230.552 432.59 237.219 452.937C244.357 474.727 250.906 496.227 252.013 519.297C252.158 522.274 256.566 523.1 257.355 520.023C262.979 498.196 268.602 476.361 274.217 454.534C279.559 433.797 285.827 412.986 287.332 391.523C287.523 388.773 283.55 387.893 282.262 390.152C276.811 399.709 276.194 411.371 280.393 421.536C285.491 433.869 296.403 439.069 307.641 444.796C313.382 447.718 319.232 451.212 322.824 456.739C327.251 463.537 324.756 470.861 323.795 478.239C322.235 490.174 326.362 502.525 334.924 511.029C345.001 521.049 360.212 524.334 373.681 520.286C376.493 519.442 376.13 514.641 372.956 514.941C365.854 515.612 361.618 508.679 359.795 502.689C357.382 494.748 357.373 486.108 357.382 477.876C357.4 464.054 357.926 449.824 352.466 436.81C350.171 431.346 346.842 426.454 342.425 422.498C338.244 418.749 333.373 415.773 329.5 411.67C323.813 405.653 325.137 399.736 326.833 392.213C328.384 385.36 327.949 378.999 323.595 373.236C321.518 370.495 316.811 373.127 318.897 375.985C324.575 383.763 332.294 389.127 340.366 394.173C350.271 400.371 360.212 406.516 370.135 412.687C390.416 425.302 410.688 437.908 430.969 450.523C433.246 451.939 436.175 449.089 434.688 446.802C410.652 409.574 386.615 372.346 362.579 335.118C360.656 332.142 356.402 334.719 357.881 337.868C362.153 346.971 367.241 357.027 376.366 362.145C387.967 368.643 401.001 363.271 412.856 360.53C425.572 357.589 441.754 356.283 451.386 367.082C455.359 371.529 456.656 377.655 460.529 382.175C463.713 385.887 468.175 387.965 472.974 388.591C487.196 390.452 498.307 380.378 510.978 376.004C510.28 374.343 509.581 372.682 508.883 371.03C494.425 379.879 480.139 362.962 473.482 351.954C466.869 341.027 460.284 328.693 447.704 323.792C435.241 318.937 421.445 323.311 408.928 319.218C400.584 316.486 398.289 309.117 393.427 302.701C389.672 297.745 383.795 294.288 377.527 296.221C374.189 297.255 375.568 302.347 378.978 301.475C418.534 291.293 458.089 281.11 497.645 270.918C500.194 270.265 500.284 266.272 497.645 265.663C460.112 257.105 422.57 248.556 385.037 239.998C381.636 239.199 380.185 244.445 383.604 245.225Z" fill="black" fill-opacity="0.45"/>
<path d="M10.1536 167.43C15.4507 153.944 32.5844 155.332 42.6796 161.767C53.3009 168.537 59.3055 181.225 71.4869 185.672C83.7952 190.164 97.3462 185.645 109.99 185.581C123.196 185.517 136.72 188.431 147.196 196.862C149.899 199.04 153.772 195.21 151.042 193.014C140.339 184.392 127.178 180.68 113.582 180.19C98.607 179.646 79.904 187.006 66.8973 176.932C61.0469 172.403 56.8202 166.141 51.1785 161.368C46.1082 157.075 40.2397 153.499 33.691 152.056C22.0448 149.497 9.40987 154.497 4.90194 165.978C3.62303 169.245 8.88377 170.661 10.1536 167.43Z" fill="black" fill-opacity="0.45"/>
<path d="M12.5028 174.736C24.8655 166.286 34.6886 183.412 39.2419 192.27C44.5027 202.507 51.4233 211.228 61.709 216.792C73.0469 222.918 85.582 223.145 98.1171 224.107C109.972 225.014 123.514 227.655 130.162 238.646C131.976 241.64 136.684 238.909 134.861 235.896C119.496 210.511 84.0037 224.306 62.0446 210.693C56.1036 207.008 51.0877 201.944 47.4505 195.972C43.895 190.128 41.4279 183.657 37.3825 178.112C31.2873 169.771 19.3689 163.464 9.75443 170.035C6.87915 172.004 9.60026 176.723 12.5028 174.736Z" fill="black" fill-opacity="0.45"/>
<path d="M139.478 22.2669C152.874 23.0384 165.391 30.0991 172.92 41.2439C180.512 52.4793 179.677 64.9219 182.679 77.5459C184.112 83.5721 186.77 89.2897 191.369 93.5552C196.013 97.866 201.827 100.425 207.341 103.411C221.001 110.79 229.636 124.321 230.044 139.967C230.135 143.507 235.223 143.434 235.486 139.967C238.579 99.2999 245.609 59.041 256.421 19.7258C254.67 19.7258 252.92 19.7258 251.169 19.7258C262.162 48.8491 270.969 78.7258 277.536 109.147C278.271 112.568 283.523 111.125 282.788 107.695C276.221 77.2646 267.414 47.388 256.421 18.2737C255.514 15.8778 251.931 15.5057 251.169 18.2737C240.221 58.0608 233.174 98.8189 230.035 139.967C231.849 139.967 233.663 139.967 235.477 139.967C235.178 128.496 230.951 117.533 223.341 108.92C219.568 104.645 215.069 101.405 210.081 98.7191C204.802 95.8694 199.06 93.4735 194.707 89.2261C186.081 80.8131 187.015 67.5447 185.001 56.5633C183.169 46.6075 178.063 37.3323 170.761 30.3532C162.244 22.2034 151.205 17.5114 139.469 16.8398C135.986 16.622 135.995 22.0673 139.478 22.2669Z" fill="black" fill-opacity="0.45"/>
<path d="M132.085 178.384C115.423 148.435 99.8495 117.723 78.4074 90.8053C77.3099 92.2301 76.2124 93.655 75.1058 95.0798C77.7815 96.2869 80.9652 98.6375 83.7951 99.3363C84.0309 99.3907 84.4844 99.908 84.7566 99.9443C84.4663 96.9222 85.1466 95.5155 86.7883 95.7242C86.5434 95.6697 86.2985 95.5972 86.0536 95.5246C83.5049 93.7821 80.6205 93.292 78.4074 90.8144C77.5275 92.33 76.6387 93.8456 75.7589 95.3612C99.2599 105.045 118.988 121.326 138.924 136.718C143.605 140.33 148.158 144.015 153.337 146.892C158.988 150.032 164.865 152.718 170.87 155.114C172.874 155.913 174.997 156.557 176.602 157.701C178.189 158.844 179.26 159.217 181.174 159.97C185.174 161.531 188.521 161.676 190.861 157.529C196.23 147.99 190.244 136.274 183.223 129.276C175.84 121.916 166.915 116.553 161.083 107.631C151.559 93.0923 157.818 73.8885 158.081 57.6706C158.226 49.2575 157.555 40.3998 153.772 32.7401C149.908 24.9079 142.888 20.0162 134.616 17.6657C131.242 16.7036 129.8 21.9584 133.165 22.9204C167.387 32.6947 144.675 77.3281 151.868 100.897C154.462 109.392 160.357 116.317 166.743 122.261C174.026 129.04 183.124 134.531 186.598 144.405C187.55 147.11 188.348 151.148 186.598 153.726C185.419 155.459 184.756 155.078 182.888 154.788C182.57 154.742 180.883 154.307 180.92 154.334C180.004 153.762 179.541 152.728 178.389 152.174C175.26 150.686 171.804 149.714 168.611 148.344C163.831 146.293 159.178 143.979 154.661 141.401C149.328 138.361 144.539 134.259 139.686 130.502C119.986 115.228 100.421 99.6902 77.1738 90.1155C74.4527 88.9902 72.9017 92.8563 74.5253 94.6624C76.9652 97.3941 83.0786 101.868 87.0785 101.097C89.6273 100.598 90.1625 97.9296 88.5752 96.0963C86.1806 93.3373 80.9471 91.7945 77.8269 90.3878C74.9516 89.09 72.5752 92.2029 74.5253 94.6624C95.659 121.19 110.933 151.629 127.351 181.143C129.083 184.192 133.79 181.452 132.085 178.384Z" fill="black" fill-opacity="0.45"/>
<path d="M271.668 83.6992C276.276 103.665 282.035 123.323 288.919 142.627C290.09 145.903 295.35 144.487 294.171 141.174C287.287 121.88 281.527 102.213 276.919 82.2471C276.121 78.8347 270.879 80.2868 271.668 83.6992Z" fill="black" fill-opacity="0.45"/>
<path d="M125.446 178.838C126.353 180.045 127.26 181.261 128.167 182.468C129.02 183.603 130.562 184.301 131.886 183.448C133.01 182.722 133.772 180.943 132.865 179.727C131.958 178.52 131.051 177.304 130.144 176.097C129.292 174.963 127.75 174.264 126.425 175.117C125.301 175.843 124.53 177.622 125.446 178.838Z" fill="black" fill-opacity="0.45"/>
<path d="M2.55268 173.846C2.52547 174.173 2.37128 174.418 2.09917 174.609C3.45971 175.389 4.82931 176.179 6.18985 176.959C6.47103 174.01 7.242 171.087 8.45742 168.383C6.77035 167.929 5.07421 167.466 3.38713 167.013C3.47784 169.69 3.57761 172.367 3.66831 175.053C3.74087 177.168 6.7522 178.956 8.31229 176.977C8.86558 176.279 9.41886 175.571 9.98122 174.872C10.8973 173.71 11.0969 172.158 9.98122 171.024C9.04698 170.071 7.04246 169.871 6.13543 171.024C5.58214 171.723 5.02886 172.431 4.4665 173.129C6.01752 173.774 7.55946 174.409 9.11048 175.053C9.0107 172.376 8.92 169.699 8.8293 167.013C8.7386 164.535 4.93816 163.019 3.75902 165.642C2.12637 169.281 1.12863 172.993 0.74768 176.968C0.557204 178.956 3.23295 180.462 4.83838 179.319C6.78849 177.939 7.76809 176.233 7.98577 173.855C8.32137 170.352 2.87921 170.38 2.55268 173.846Z" fill="black" fill-opacity="0.45"/>
<path d="M363.985 195.074C363.287 196 362.597 196.925 361.899 197.851C361.5 198.378 361.455 199.34 361.627 199.948C361.799 200.583 362.289 201.264 362.879 201.572C363.514 201.908 364.275 202.071 364.974 201.844C365.69 201.608 366.153 201.191 366.597 200.592C367.296 199.666 367.985 198.741 368.684 197.815C369.083 197.288 369.128 196.326 368.956 195.718C368.783 195.083 368.294 194.402 367.704 194.094C367.069 193.758 366.307 193.595 365.609 193.822C364.892 194.058 364.43 194.475 363.985 195.074Z" fill="black" fill-opacity="0.45"/>
<path d="M356.611 10.7955C360.112 10.7955 360.121 5.35022 356.611 5.35022C353.11 5.35022 353.101 10.7955 356.611 10.7955Z" fill="black" fill-opacity="0.45"/>
<path d="M365.636 201.953C369.137 201.953 369.146 196.508 365.636 196.508C362.135 196.508 362.135 201.953 365.636 201.953Z" fill="black" fill-opacity="0.45"/>
<path d="M367.024 201.953C370.525 201.953 370.534 196.508 367.024 196.508C363.522 196.508 363.522 201.953 367.024 201.953Z" fill="black" fill-opacity="0.45"/>
<path d="M369.11 201.953C372.611 201.953 372.62 196.508 369.11 196.508C365.609 196.508 365.609 201.953 369.11 201.953Z" fill="black" fill-opacity="0.45"/>
<path d="M130.825 185.962C134.326 185.962 134.335 180.517 130.825 180.517C127.323 180.517 127.314 185.962 130.825 185.962Z" fill="black" fill-opacity="0.45"/>
<path d="M132.212 185.962C135.713 185.962 135.722 180.517 132.212 180.517C128.711 180.517 128.711 185.962 132.212 185.962Z" fill="black" fill-opacity="0.45"/>
<path d="M132.911 185.962C136.412 185.962 136.421 180.517 132.911 180.517C129.41 180.517 129.401 185.962 132.911 185.962Z" fill="black" fill-opacity="0.45"/>
<path d="M361.055 27.549C357.999 51.6717 329.337 61.4824 322.752 84.1893C319.441 95.6063 325.101 106.751 324.529 118.277C323.904 130.828 318.579 142.754 309.863 151.757C308.239 153.436 310.797 156.004 312.43 154.325C320.557 145.939 325.917 135.257 327.622 123.677C328.43 118.223 328.402 112.705 327.532 107.259C326.425 100.28 324.185 93.6097 325.89 86.5126C331.641 62.4807 361.445 53.1056 364.684 27.549C364.983 25.2347 361.346 25.262 361.055 27.549Z" fill="black" fill-opacity="0.45"/>
<path d="M421.4 103.23C406.806 110.971 396.021 123.514 385.436 135.893C373.092 150.341 359.713 163.7 345.999 176.832C344.312 178.448 346.879 181.016 348.566 179.401C361.917 166.613 375.015 153.644 387.042 139.586C397.745 127.089 408.457 114.202 423.232 106.37C425.3 105.263 423.468 102.132 421.4 103.23Z" fill="black" fill-opacity="0.45"/>
<path d="M496.674 160.75C489.917 173.075 475.368 176.052 462.461 176.76C450.67 177.413 436.529 175.979 426.715 183.884C418.08 190.836 415.087 202.271 407.405 210.04C398.67 218.87 385.509 223.317 373.636 218.625C371.468 217.763 370.525 221.275 372.674 222.128C383.405 226.366 395.377 223.735 404.593 217.164C414.878 209.831 418.126 197.924 426.479 189.057C437.318 177.558 456.357 181.561 470.534 179.673C482.162 178.121 493.917 173.329 499.813 162.584C500.937 160.533 497.799 158.699 496.674 160.75Z" fill="black" fill-opacity="0.45"/>
<path d="M359.704 16.2046C360.52 19.9618 360.738 23.7191 360.421 27.5399C360.23 29.8723 363.858 29.8542 364.049 27.5399C364.384 23.3924 364.085 19.3084 363.196 15.2426C362.706 12.9555 359.205 13.9266 359.704 16.2046Z" fill="black" fill-opacity="0.45"/>
<path d="M418.96 102.513C417.754 103.212 416.547 103.919 415.341 104.618C416.23 105.299 417.119 105.989 418.008 106.669C418.325 105.834 418.869 105.199 419.531 104.618C421.155 103.203 419.087 100.87 417.336 101.769C416.593 102.15 415.849 102.531 415.096 102.912C415.985 103.593 416.874 104.282 417.763 104.963C418.026 104.155 418.289 103.348 418.552 102.54C418.833 101.687 418.298 100.716 417.5 100.398C416.593 100.035 415.794 100.398 415.232 101.142C414.389 102.25 413.545 103.357 412.701 104.473C412.112 105.254 412.575 106.506 413.355 106.96C414.289 107.504 415.241 107.096 415.84 106.306C416.683 105.199 417.527 104.092 418.37 102.976C417.264 102.513 416.157 102.041 415.051 101.578C414.788 102.386 414.525 103.193 414.262 104.001C413.745 105.598 415.595 106.733 416.928 106.052C417.672 105.671 418.416 105.29 419.169 104.909C418.434 103.956 417.699 103.012 416.974 102.059C415.822 103.066 415.06 104.292 414.516 105.707C413.926 107.241 415.903 108.503 417.182 107.758C418.389 107.06 419.595 106.352 420.801 105.653C422.806 104.473 420.983 101.333 418.96 102.513Z" fill="black" fill-opacity="0.45"/>
<path d="M492.774 266.462C455.949 267.07 419.123 266.707 382.316 265.373C379.985 265.291 379.985 268.921 382.316 269.003C419.123 270.337 455.949 270.7 492.774 270.092C495.105 270.056 495.114 266.426 492.774 266.462Z" fill="black" fill-opacity="0.45"/>
<path d="M485.708 369.787C473.155 373.517 465.881 359.15 459.776 350.973C453.872 343.059 446.089 338.594 436.366 336.97C415.16 333.43 385.346 341.616 372.094 319.245C370.906 317.24 367.767 319.064 368.965 321.079C382.452 343.858 411.123 337.469 433.046 340.137C439.495 340.918 446.126 342.733 451.223 346.953C455.885 350.801 458.869 356.155 462.343 361.002C467.903 368.743 476.447 376.33 486.679 373.299C488.91 372.618 487.958 369.115 485.708 369.787Z" fill="black" fill-opacity="0.45"/>
<path d="M429.518 442.055C402.334 411.335 367.541 388.346 341.6 356.437C340.13 354.622 337.573 357.208 339.033 359.005C364.974 390.915 399.767 413.903 426.951 444.624C428.502 446.375 431.06 443.807 429.518 442.055Z" fill="black" fill-opacity="0.45"/>
<path d="M364.094 512.844C348.729 510.23 340.874 497.252 340.901 482.405C340.928 470.035 344.121 457.048 338.86 445.25C333.718 433.724 320.448 430.847 312.802 421.508C304.656 411.543 301.718 397.948 304.992 385.533C305.591 383.273 302.09 382.311 301.491 384.571C298.362 396.405 300.366 409.175 306.915 419.521C310.126 424.603 314.343 428.877 319.332 432.217C325.845 436.592 332.711 439.786 335.867 447.51C341.745 461.894 335.042 477.74 338.198 492.56C340.811 504.84 350.779 514.26 363.114 516.356C365.418 516.738 366.398 513.234 364.094 512.844Z" fill="black" fill-opacity="0.45"/>
<path d="M256.357 515.476C258.081 474.001 257.337 432.471 254.135 391.087C253.954 388.773 250.325 388.755 250.507 391.087C253.709 432.471 254.452 474.01 252.729 515.476C252.629 517.809 256.257 517.809 256.357 515.476Z" fill="black" fill-opacity="0.45"/>
<path d="M158.353 506.001C152.838 484.184 179.877 471.415 186.788 453.363C191.097 442.092 190.044 429.803 190.262 417.996C190.38 411.398 190.861 404.691 193.001 398.402C195.26 391.75 200.475 388.011 203.822 382.148C204.983 380.115 201.854 378.291 200.693 380.314C197.428 386.014 192.43 389.617 190.026 395.961C187.822 401.787 187.033 408.086 186.743 414.284C186.126 427.716 188.248 442.119 182.298 454.688C173.89 472.467 149.083 484.148 154.852 506.972C155.423 509.232 158.924 508.27 158.353 506.001Z" fill="black" fill-opacity="0.45"/>
<path d="M83.0785 444.125C110.561 414.339 137.645 384.172 164.312 353.651C165.845 351.899 163.287 349.322 161.745 351.082C135.078 381.612 108.004 411.77 80.5116 441.556C78.9333 443.271 81.4912 445.849 83.0785 444.125Z" fill="black" fill-opacity="0.45"/>
<path d="M17.9721 375.795C16.2759 366.374 27.387 363.37 34.3711 362.2C41.8178 360.947 49.2826 359.822 56.7384 358.642C63.523 357.562 71.015 357.117 77.337 354.195C81.6726 352.189 85.0558 348.859 87.9039 345.092C94.2621 336.67 98.38 324.337 109.364 320.888C118.879 317.902 134.053 320.189 137.028 307.411C137.555 305.142 134.063 304.171 133.527 306.449C131.659 314.481 122.235 315.234 115.559 316.051C110.108 316.722 105.119 317.938 100.784 321.451C92.2667 328.339 89.2553 339.674 81.3642 347.08C75.9402 352.171 68.947 353.043 61.8994 354.159C53.7452 355.457 45.591 356.754 37.4278 358.052C27.3598 359.65 12.0129 363.116 14.4709 376.757C14.8881 379.053 18.3893 378.082 17.9721 375.795Z" fill="black" fill-opacity="0.45"/>
<path d="M11.387 276.981C49.5366 274.585 87.7678 273.859 125.972 274.83C128.312 274.884 128.303 271.254 125.972 271.199C87.7587 270.237 49.5275 270.954 11.387 273.35C9.07409 273.496 9.05595 277.135 11.387 276.981Z" fill="black" fill-opacity="0.45"/>
<path d="M15.5775 169.399C20.9924 164.78 28.9199 163.627 35.396 166.74C41.0378 169.463 44.1217 175.117 46.7974 180.481C51.913 190.727 57.0921 199.085 68.3484 203.178C90.1805 211.129 120.629 198.586 137.899 217.844C139.459 219.587 142.017 217.01 140.466 215.276C121.301 193.912 89.3733 209.676 66.235 198.368C53.0468 191.925 52.2305 177.132 42.6523 167.557C34.5797 159.489 21.5366 159.552 13.0197 166.822C11.2328 168.356 13.8088 170.915 15.5775 169.399Z" fill="black" fill-opacity="0.45"/>
<path d="M82.3983 100.326C108.357 127.398 134.652 154.152 161.264 180.589C162.924 182.241 165.491 179.673 163.831 178.021C137.219 151.584 110.924 124.829 84.9652 97.7572C83.3416 96.0692 80.7748 98.6375 82.3983 100.326Z" fill="black" fill-opacity="0.45"/>
<path d="M147.26 24.9806C152.82 29.2189 158.67 33.6568 162.389 39.692C165.763 45.1645 166.734 51.463 166.852 57.7886C167.069 69.3327 164.629 81.4938 169.137 92.5388C173.292 102.731 182.607 109.047 191.151 115.318C201.056 122.588 213.373 133.95 208.729 147.636C207.976 149.851 211.477 150.804 212.23 148.598C216.185 136.954 208.956 125.583 200.466 118.041C190.879 109.51 177.591 103.711 172.493 91.1411C167.305 78.3628 171.813 64.0235 169.954 50.7369C168.112 37.5683 159.16 29.5183 149.092 21.8586C147.233 20.4337 145.419 23.583 147.26 24.9806Z" fill="black" fill-opacity="0.45"/>
<path d="M256.802 28.9557C256.593 65.3213 256.602 101.723 258.969 138.025C259.124 140.349 262.752 140.358 262.598 138.025C260.23 101.723 260.221 65.3213 260.43 28.9557C260.448 26.6233 256.82 26.6142 256.802 28.9557Z" fill="black" fill-opacity="0.45"/>
<path d="M201.555 149.878C189.255 155.55 178.19 163.391 169.192 173.547C167.26 175.725 170.462 178.947 172.403 176.76C181.174 166.858 191.877 159.326 203.849 153.799C206.489 152.573 204.185 148.662 201.555 149.878Z" fill="black" fill-opacity="0.45"/>
<path d="M171.586 172.213C134.389 200.991 119.859 251.896 130.244 297.056C135.305 319.064 146.135 339.62 161.664 356.028C179.042 374.397 201.636 386.468 226.189 392.14C251.196 397.921 277.836 397.431 301.582 387.148C313.155 382.13 324.956 375.604 334.997 367.945C344.584 360.63 353.201 350.837 360.439 341.253C376.62 319.835 384.257 293.48 384.194 266.771C384.167 253.738 381.953 240.443 378.053 228.018C376.157 222.001 373.79 216.12 370.969 210.484C368.139 204.821 364.684 200.038 361.019 194.992C357.908 190.709 355.486 186.144 351.813 182.241C347.441 177.613 343.024 173.011 338.353 168.673C329.518 160.469 319.722 153.281 308.43 148.871C296.076 144.042 282.325 141.692 269.174 140.376C255.496 139.005 241.636 139.359 228.103 141.792C221.174 143.035 214.398 144.895 207.777 147.273C205.047 148.253 206.226 152.637 208.983 151.648C234.353 142.554 261.79 142.3 287.976 147.89C300.457 150.549 312.13 154.334 322.688 161.685C332.139 168.256 340.221 176.587 348.103 184.918C350.017 186.933 351.042 189.148 352.602 191.317C353.899 193.123 355.314 194.575 356.502 196.49C357.69 198.423 359.441 199.911 360.756 201.754C362.897 204.739 364.665 208.125 366.353 211.383C372.112 222.509 375.813 234.553 377.881 246.886C382.235 272.751 378.688 300.377 366.334 323.665C360.711 334.265 353.282 343.74 344.956 352.335C341.155 356.255 337.228 360.239 333.01 363.715C327.976 367.872 321.944 371.221 316.312 374.497C305.709 380.659 294.579 385.978 282.598 388.791C270.462 391.641 257.609 391.831 245.237 390.67C220.239 388.319 195.224 379.153 175.804 363.044C159.16 349.24 146.371 331.116 139.024 310.769C122.008 263.64 134.462 206.645 174.815 175.416C177.101 173.638 173.872 170.452 171.586 172.213Z" fill="black" fill-opacity="0.45"/>
<path d="M256.139 391.196C325.77 391.196 382.216 334.717 382.216 265.046C382.216 195.376 325.77 138.896 256.139 138.896C186.509 138.896 130.062 195.376 130.062 265.046C130.062 334.717 186.509 391.196 256.139 391.196Z" stroke="black" stroke-opacity="0.45" stroke-miterlimit="10"/>
<path d="M209.573 145.83C206.561 147.219 203.55 148.607 200.539 150.005C197.89 151.23 200.194 155.142 202.824 153.926C205.836 152.537 208.847 151.148 211.858 149.751C214.507 148.526 212.212 144.614 209.573 145.83Z" fill="black" fill-opacity="0.45"/>
</svg>
