<svg width="25" height="40" viewBox="0 0 25 40" fill="none" xmlns="http://www.w3.org/2000/svg">
<path d="M12.0311 20.2473C17.6222 20.2473 22.1547 15.7148 22.1547 10.1236C22.1547 4.5325 17.6222 0 12.0311 0C6.43985 0 1.90735 4.5325 1.90735 10.1236C1.90735 15.7148 6.43985 20.2473 12.0311 20.2473ZM12.0311 5.14315C14.7818 5.14315 17.0115 7.37295 17.0115 10.1236C17.0115 12.8744 14.7818 15.1042 12.0311 15.1042C9.2803 15.1042 7.05055 12.8744 7.05055 10.1236C7.05055 7.37355 9.2803 5.14315 12.0311 5.14315ZM23.7002 21.4824C23.1284 20.3341 21.5458 19.3788 19.4417 21.0368C16.5983 23.2773 12.0305 23.2773 12.0305 23.2773C12.0305 23.2773 7.46265 23.2773 4.6192 21.0368C2.51565 19.3788 0.932451 20.3341 0.360651 21.4824C-0.635799 23.4843 0.48985 24.4515 3.03065 26.0825C5.2006 27.4755 8.1822 27.9958 10.1081 28.1908L8.50095 29.798C6.2371 32.0619 4.0516 34.2473 2.5354 35.7635C1.62865 36.6697 1.62865 38.1399 2.5354 39.0466L2.80875 39.32C3.71545 40.2267 5.18505 40.2261 6.09175 39.32L12.0574 33.3544C14.3212 35.6182 16.5067 37.8037 18.0229 39.32C18.929 40.2267 20.3993 40.2267 21.306 39.32L21.5793 39.0466C22.486 38.1399 22.4855 36.6703 21.5793 35.7635L15.6138 29.798L14.0012 28.1861C15.9284 27.9875 18.8783 27.4647 21.0303 26.0831C23.5711 24.452 24.6966 23.4843 23.7002 21.4824Z" fill="#F15330"/>
</svg>
