<svg width="40" height="41" viewBox="0 0 40 41" fill="none" xmlns="http://www.w3.org/2000/svg">
<mask id="mask0_159_317" style="mask-type:luminance" maskUnits="userSpaceOnUse" x="0" y="0" width="40" height="41">
<path d="M8.7793 0.615234H31.4648C36.084 0.615234 39.8242 4.35547 39.8242 8.97461V31.6602C39.8242 36.2793 36.084 40.0195 31.4648 40.0195H8.7793C4.16016 40.0195 0.419922 36.2793 0.419922 31.6602V8.97461C0.419922 4.35547 4.16016 0.615234 8.7793 0.615234Z" fill="white"/>
</mask>
<g mask="url(#mask0_159_317)">
<path d="M32.7051 11.5723C34.0804 11.5723 35.1953 10.4573 35.1953 9.08203C35.1953 7.70671 34.0804 6.5918 32.7051 6.5918C31.3298 6.5918 30.2148 7.70671 30.2148 9.08203C30.2148 10.4573 31.3298 11.5723 32.7051 11.5723Z" fill="#F15330"/>
<path d="M25.3125 11.2988H7.8125V30.7422H12.6855V24.4141H22.0117L26.2695 30.7422H31.7285L27.0312 24.3848C28.4863 24.1504 29.541 23.6035 30.1758 22.7246C30.8105 21.8457 31.1426 20.4492 31.1426 18.584V17.1289C31.1426 16.0254 31.0254 15.1465 30.8203 14.4727C30.6152 13.7988 30.2637 13.2227 29.7754 12.6953C29.248 12.207 28.6719 11.8457 27.9688 11.6211C27.2656 11.416 26.3867 11.2988 25.3125 11.2988ZM24.5215 20.1367H12.6758V15.5859H24.5117C25.1855 15.5859 25.6543 15.7031 25.8789 15.9082C26.1133 16.1133 26.2598 16.4941 26.2598 17.0508V18.6816C26.2598 19.2676 26.1133 19.6484 25.8789 19.8535C25.6543 20.0391 25.1953 20.1367 24.5215 20.1367Z" fill="#F15330"/>
</g>
</svg>
