<svg width="40" height="34" viewBox="0 0 40 34" fill="none" xmlns="http://www.w3.org/2000/svg">
<path d="M36.5899 0.794293C36.5899 0.794293 40.2901 -0.648607 39.9818 2.85549C39.879 4.29839 38.954 9.34839 38.2344 14.8107L35.7676 30.9913C35.7676 30.9913 35.562 33.3617 33.7118 33.774C31.8616 34.1862 29.0865 32.3311 28.5725 31.9189C28.1613 31.6097 20.8636 26.9719 18.2939 24.7046C17.5744 24.0862 16.7521 22.8494 18.3967 21.4066L29.1892 11.1005C30.4227 9.86369 31.6561 6.97799 26.5168 10.4821L12.1267 20.2729C12.1267 20.2729 10.4822 21.3035 7.39865 20.376L0.717549 18.3147C0.717549 18.3147 -1.74933 16.7688 2.4649 15.2228C12.7435 10.3789 25.3862 5.43199 36.5899 0.794293Z" fill="#F15330"/>
</svg>
