<svg width="42" height="30" viewBox="0 0 42 30" fill="none" xmlns="http://www.w3.org/2000/svg">
<path d="M41.4745 5.93375C41.0763 2.7892 39.2597 0.8168 36.0354 0.52545C32.3436 0.19195 24.3515 0 20.6446 0C13.0623 0 9.6738 0.1852 6.0881 0.55635C2.671 0.9094 1.17515 2.42785 0.5872 5.5626C0.17541 7.75935 0 9.8168 0 14.6793C0 19.0472 0.206275 21.7943 0.52547 24.1054C0.964365 27.2793 3.14305 29.0627 6.33575 29.3285C10.0502 29.6379 17.4911 29.7922 21.1702 29.7922C24.725 29.7922 32.7252 29.607 36.2823 29.205C39.466 28.8452 40.9799 27.1445 41.4745 24.0128C41.4745 24.0128 42 20.5822 42 14.6485C42 11.2698 41.753 8.1275 41.4745 5.93375ZM16.5343 20.799V8.7252L28.0306 14.7004L16.5343 20.799Z" fill="#F15330"/>
</svg>
